<svg width="119" height="21" viewBox="0 0 119 21" fill="none" xmlns="http://www.w3.org/2000/svg">
<path d="M119 2.01161C119.006 1.45936 118.564 1.00648 118.012 1.00007L109.012 0.895596C108.46 0.889185 108.007 1.33167 108.001 1.88392C107.994 2.43617 108.437 2.88905 108.989 2.89546L116.988 2.98832L116.896 10.9878C116.889 11.54 117.332 11.9929 117.884 11.9993C118.436 12.0057 118.889 11.5632 118.895 11.011L119 2.01161ZM0.460908 2.84225C11.3204 9.79305 32.4046 17.966 54.9581 20.3291C77.5042 22.6913 101.758 19.2678 118.699 2.71527L117.301 1.28473C100.973 17.2378 77.4443 20.6741 55.1665 18.34C32.896 16.0066 12.1147 7.92682 1.53909 1.15775L0.460908 2.84225Z" fill="#DE713D"/>
</svg>
