<svg width="669" height="675" viewBox="0 0 669 675" fill="none" xmlns="http://www.w3.org/2000/svg">
<path d="M698 510.828H0V511.177H698V510.828Z" fill="#EBEBEB"/>
<path d="M628.063 533.298H581.824V533.647H628.063V533.298Z" fill="#EBEBEB"/>
<path d="M462.383 537.086H450.248V537.435H462.383V537.086Z" fill="#EBEBEB"/>
<path d="M580.427 520.334H553.635V520.683H580.427V520.334Z" fill="#EBEBEB"/>
<path d="M133.53 522.68H73.2324V523.029H133.53V522.68Z" fill="#EBEBEB"/>
<path d="M154.802 522.68H145.961V523.029H154.802V522.68Z" fill="#EBEBEB"/>
<path d="M314.305 528.575H183.533V528.924H314.305V528.575Z" fill="#EBEBEB"/>
<path d="M330.872 448.569H61.3063C56.913 448.569 53.3379 444.994 53.3379 440.601V61.6814C53.3379 57.2882 56.913 53.713 61.3063 53.713H330.872C335.264 53.713 338.839 57.2882 338.839 61.6814V440.601C338.839 444.994 335.264 448.569 330.872 448.569ZM61.3063 54.0634C57.1043 54.0634 53.6869 57.4808 53.6869 61.6828V440.602C53.6869 444.804 57.1043 448.221 61.3063 448.221H330.872C335.073 448.221 338.49 444.804 338.49 440.602V61.6814C338.49 57.4808 335.073 54.062 330.872 54.062L61.3063 54.0634Z" fill="#EBEBEB"/>
<path d="M632.821 448.569H363.256C358.863 448.569 355.289 444.994 355.289 440.601V61.6814C355.289 57.2882 358.864 53.713 363.256 53.713H632.821C637.215 53.713 640.789 57.2882 640.789 61.6814V440.601C640.791 444.994 637.215 448.569 632.821 448.569ZM363.256 54.0634C359.055 54.0634 355.638 57.4808 355.638 61.6828V440.602C355.638 444.804 359.055 448.221 363.256 448.221H632.821C637.023 448.221 640.44 444.804 640.44 440.602V61.6814C640.44 57.4808 637.023 54.062 632.821 54.062L363.256 54.0634Z" fill="#EBEBEB"/>
<path d="M621.806 140.578H283.582V466.598H621.806V140.578Z" fill="#E0E0E0"/>
<path d="M621.806 146.498H289.01V460.912H621.806V146.498Z" fill="#F5F5F5"/>
<path d="M291.465 384.765V290.195H301.29V277.704L323.399 267.364V254.578H327.083V290.195H330.767V384.765H335.679V335.638H346.733V309.846H350.418V384.765H359.015V356.517H365.156V349.147H378.666V323.356H386.036V306.161H394.633V280.37H398.317V306.161H406.915V323.356H414.284V349.147H427.793V356.517H433.934V384.765H441.304V349.147H454.813V270.544H458.498V261.947H487.975V270.544H494.116V327.04H518.678V333.181H527.276V336.866H518.678V358.974H544.471V285.283H549.383V270.544H561.665V214.048H565.349V270.544H573.947V285.283H621.805V460.912H289.01V384.765H291.465Z" fill="#E6E6E6"/>
<path d="M596.234 289.133H592.754V292.613H596.234V289.133Z" fill="#F0F0F0"/>
<path d="M596.234 294.967H592.754V298.447H596.234V294.967Z" fill="#F0F0F0"/>
<path d="M596.234 318.302H592.754V321.783H596.234V318.302Z" fill="#F0F0F0"/>
<path d="M596.234 324.136H592.754V327.617H596.234V324.136Z" fill="#F0F0F0"/>
<path d="M596.234 329.97H592.754V333.45H596.234V329.97Z" fill="#F0F0F0"/>
<path d="M596.234 347.472H592.754V350.952H596.234V347.472Z" fill="#F0F0F0"/>
<path d="M596.234 353.306H592.754V356.786H596.234V353.306Z" fill="#F0F0F0"/>
<path d="M590.707 312.469H587.227V315.949H590.707V312.469Z" fill="#F0F0F0"/>
<path d="M590.707 318.302H587.227V321.783H590.707V318.302Z" fill="#F0F0F0"/>
<path d="M590.707 324.136H587.227V327.617H590.707V324.136Z" fill="#F0F0F0"/>
<path d="M590.707 329.97H587.227V333.45H590.707V329.97Z" fill="#F0F0F0"/>
<path d="M590.707 335.804H587.227V339.284H590.707V335.804Z" fill="#F0F0F0"/>
<path d="M590.707 347.472H587.227V350.952H590.707V347.472Z" fill="#F0F0F0"/>
<path d="M590.707 353.306H587.227V356.786H590.707V353.306Z" fill="#F0F0F0"/>
<path d="M585.179 289.133H581.699V292.613H585.179V289.133Z" fill="#F0F0F0"/>
<path d="M585.179 294.967H581.699V298.447H585.179V294.967Z" fill="#F0F0F0"/>
<path d="M585.179 300.801H581.699V304.281H585.179V300.801Z" fill="#F0F0F0"/>
<path d="M585.179 306.635H581.699V310.115H585.179V306.635Z" fill="#F0F0F0"/>
<path d="M585.179 312.469H581.699V315.949H585.179V312.469Z" fill="#F0F0F0"/>
<path d="M585.179 318.302H581.699V321.783H585.179V318.302Z" fill="#F0F0F0"/>
<path d="M585.179 324.136H581.699V327.617H585.179V324.136Z" fill="#F0F0F0"/>
<path d="M585.179 329.97H581.699V333.45H585.179V329.97Z" fill="#F0F0F0"/>
<path d="M585.179 335.804H581.699V339.284H585.179V335.804Z" fill="#F0F0F0"/>
<path d="M585.179 341.638H581.699V345.118H585.179V341.638Z" fill="#F0F0F0"/>
<path d="M585.179 353.306H581.699V356.786H585.179V353.306Z" fill="#F0F0F0"/>
<path d="M579.652 289.133H576.172V292.613H579.652V289.133Z" fill="#F0F0F0"/>
<path d="M579.652 294.967H576.172V298.447H579.652V294.967Z" fill="#F0F0F0"/>
<path d="M579.652 300.801H576.172V304.281H579.652V300.801Z" fill="#F0F0F0"/>
<path d="M579.652 306.635H576.172V310.115H579.652V306.635Z" fill="#F0F0F0"/>
<path d="M579.652 312.469H576.172V315.949H579.652V312.469Z" fill="#F0F0F0"/>
<path d="M579.652 318.302H576.172V321.783H579.652V318.302Z" fill="#F0F0F0"/>
<path d="M579.652 324.136H576.172V327.617H579.652V324.136Z" fill="#F0F0F0"/>
<path d="M579.652 376.641H576.172V380.121H579.652V376.641Z" fill="#F0F0F0"/>
<path d="M574.127 289.133H570.646V292.613H574.127V289.133Z" fill="#F0F0F0"/>
<path d="M574.127 294.967H570.646V298.447H574.127V294.967Z" fill="#F0F0F0"/>
<path d="M574.127 300.801H570.646V304.281H574.127V300.801Z" fill="#F0F0F0"/>
<path d="M574.127 306.635H570.646V310.115H574.127V306.635Z" fill="#F0F0F0"/>
<path d="M574.127 312.469H570.646V315.949H574.127V312.469Z" fill="#F0F0F0"/>
<path d="M574.127 318.302H570.646V321.783H574.127V318.302Z" fill="#F0F0F0"/>
<path d="M574.127 324.136H570.646V327.617H574.127V324.136Z" fill="#F0F0F0"/>
<path d="M574.127 329.97H570.646V333.45H574.127V329.97Z" fill="#F0F0F0"/>
<path d="M574.127 364.974H570.646V368.454H574.127V364.974Z" fill="#F0F0F0"/>
<path d="M574.127 370.807H570.646V374.288H574.127V370.807Z" fill="#F0F0F0"/>
<path d="M574.127 376.641H570.646V380.121H574.127V376.641Z" fill="#F0F0F0"/>
<path d="M574.127 382.475H570.646V385.955H574.127V382.475Z" fill="#F0F0F0"/>
<path d="M574.127 405.811H570.646V409.291H574.127V405.811Z" fill="#F0F0F0"/>
<path d="M568.599 289.133H565.119V292.613H568.599V289.133Z" fill="#F0F0F0"/>
<path d="M568.599 294.967H565.119V298.447H568.599V294.967Z" fill="#F0F0F0"/>
<path d="M568.599 300.801H565.119V304.281H568.599V300.801Z" fill="#F0F0F0"/>
<path d="M568.599 306.635H565.119V310.115H568.599V306.635Z" fill="#F0F0F0"/>
<path d="M568.599 312.469H565.119V315.949H568.599V312.469Z" fill="#F0F0F0"/>
<path d="M568.599 318.302H565.119V321.783H568.599V318.302Z" fill="#F0F0F0"/>
<path d="M568.599 324.136H565.119V327.617H568.599V324.136Z" fill="#F0F0F0"/>
<path d="M568.599 329.97H565.119V333.45H568.599V329.97Z" fill="#F0F0F0"/>
<path d="M568.599 335.804H565.119V339.284H568.599V335.804Z" fill="#F0F0F0"/>
<path d="M568.599 341.638H565.119V345.118H568.599V341.638Z" fill="#F0F0F0"/>
<path d="M568.599 359.14H565.119V362.62H568.599V359.14Z" fill="#F0F0F0"/>
<path d="M568.599 364.974H565.119V368.454H568.599V364.974Z" fill="#F0F0F0"/>
<path d="M568.599 370.807H565.119V374.288H568.599V370.807Z" fill="#F0F0F0"/>
<path d="M568.599 376.641H565.119V380.121H568.599V376.641Z" fill="#F0F0F0"/>
<path d="M568.599 382.475H565.119V385.955H568.599V382.475Z" fill="#F0F0F0"/>
<path d="M568.599 405.811H565.119V409.291H568.599V405.811Z" fill="#F0F0F0"/>
<path d="M563.072 289.133H559.592V292.613H563.072V289.133Z" fill="#F0F0F0"/>
<path d="M563.072 294.967H559.592V298.447H563.072V294.967Z" fill="#F0F0F0"/>
<path d="M563.072 300.801H559.592V304.281H563.072V300.801Z" fill="#F0F0F0"/>
<path d="M563.072 306.635H559.592V310.115H563.072V306.635Z" fill="#F0F0F0"/>
<path d="M563.072 312.469H559.592V315.949H563.072V312.469Z" fill="#F0F0F0"/>
<path d="M563.072 318.302H559.592V321.783H563.072V318.302Z" fill="#F0F0F0"/>
<path d="M563.072 324.136H559.592V327.617H563.072V324.136Z" fill="#F0F0F0"/>
<path d="M563.072 329.97H559.592V333.45H563.072V329.97Z" fill="#F0F0F0"/>
<path d="M563.072 335.804H559.592V339.284H563.072V335.804Z" fill="#F0F0F0"/>
<path d="M563.072 341.638H559.592V345.118H563.072V341.638Z" fill="#F0F0F0"/>
<path d="M563.072 347.472H559.592V350.952H563.072V347.472Z" fill="#F0F0F0"/>
<path d="M563.072 353.306H559.592V356.786H563.072V353.306Z" fill="#F0F0F0"/>
<path d="M563.072 359.14H559.592V362.62H563.072V359.14Z" fill="#F0F0F0"/>
<path d="M563.072 364.974H559.592V368.454H563.072V364.974Z" fill="#F0F0F0"/>
<path d="M563.072 370.807H559.592V374.288H563.072V370.807Z" fill="#F0F0F0"/>
<path d="M563.072 376.641H559.592V380.121H563.072V376.641Z" fill="#F0F0F0"/>
<path d="M563.072 382.475H559.592V385.955H563.072V382.475Z" fill="#F0F0F0"/>
<path d="M563.072 388.309H559.592V391.789H563.072V388.309Z" fill="#F0F0F0"/>
<path d="M557.545 289.133H554.064V292.613H557.545V289.133Z" fill="#F0F0F0"/>
<path d="M557.545 294.967H554.064V298.447H557.545V294.967Z" fill="#F0F0F0"/>
<path d="M557.545 300.801H554.064V304.281H557.545V300.801Z" fill="#F0F0F0"/>
<path d="M557.545 306.635H554.064V310.115H557.545V306.635Z" fill="#F0F0F0"/>
<path d="M557.545 312.469H554.064V315.949H557.545V312.469Z" fill="#F0F0F0"/>
<path d="M557.545 318.302H554.064V321.783H557.545V318.302Z" fill="#F0F0F0"/>
<path d="M557.545 324.136H554.064V327.617H557.545V324.136Z" fill="#F0F0F0"/>
<path d="M557.545 329.97H554.064V333.45H557.545V329.97Z" fill="#F0F0F0"/>
<path d="M557.545 335.804H554.064V339.284H557.545V335.804Z" fill="#F0F0F0"/>
<path d="M557.545 341.638H554.064V345.118H557.545V341.638Z" fill="#F0F0F0"/>
<path d="M557.545 359.14H554.064V362.62H557.545V359.14Z" fill="#F0F0F0"/>
<path d="M557.545 364.974H554.064V368.454H557.545V364.974Z" fill="#F0F0F0"/>
<path d="M557.545 370.807H554.064V374.288H557.545V370.807Z" fill="#F0F0F0"/>
<path d="M557.545 376.641H554.064V380.121H557.545V376.641Z" fill="#F0F0F0"/>
<path d="M552.017 289.133H548.537V292.613H552.017V289.133Z" fill="#F0F0F0"/>
<path d="M552.017 294.967H548.537V298.447H552.017V294.967Z" fill="#F0F0F0"/>
<path d="M552.017 300.801H548.537V304.281H552.017V300.801Z" fill="#F0F0F0"/>
<path d="M552.017 306.635H548.537V310.115H552.017V306.635Z" fill="#F0F0F0"/>
<path d="M552.017 312.469H548.537V315.949H552.017V312.469Z" fill="#F0F0F0"/>
<path d="M552.017 318.302H548.537V321.783H552.017V318.302Z" fill="#F0F0F0"/>
<path d="M552.017 324.136H548.537V327.617H552.017V324.136Z" fill="#F0F0F0"/>
<path d="M552.017 329.97H548.537V333.45H552.017V329.97Z" fill="#F0F0F0"/>
<path d="M552.017 335.804H548.537V339.284H552.017V335.804Z" fill="#F0F0F0"/>
<path d="M552.017 341.638H548.537V345.118H552.017V341.638Z" fill="#F0F0F0"/>
<path d="M552.017 359.14H548.537V362.62H552.017V359.14Z" fill="#F0F0F0"/>
<path d="M552.017 364.974H548.537V368.454H552.017V364.974Z" fill="#F0F0F0"/>
<path d="M552.017 370.807H548.537V374.288H552.017V370.807Z" fill="#F0F0F0"/>
<path d="M489.791 273.985H486.311V277.465H489.791V273.985Z" fill="#F0F0F0"/>
<path d="M489.791 279.819H486.311V283.299H489.791V279.819Z" fill="#F0F0F0"/>
<path d="M489.791 285.653H486.311V289.133H489.791V285.653Z" fill="#F0F0F0"/>
<path d="M489.791 291.487H486.311V294.967H489.791V291.487Z" fill="#F0F0F0"/>
<path d="M489.791 297.321H486.311V300.801H489.791V297.321Z" fill="#F0F0F0"/>
<path d="M489.791 303.154H486.311V306.635H489.791V303.154Z" fill="#F0F0F0"/>
<path d="M489.791 308.988H486.311V312.469H489.791V308.988Z" fill="#F0F0F0"/>
<path d="M489.791 314.822H486.311V318.302H489.791V314.822Z" fill="#F0F0F0"/>
<path d="M489.791 332.324H486.311V335.804H489.791V332.324Z" fill="#F0F0F0"/>
<path d="M489.791 338.158H486.311V341.638H489.791V338.158Z" fill="#F0F0F0"/>
<path d="M484.263 273.985H480.783V277.465H484.263V273.985Z" fill="#F0F0F0"/>
<path d="M484.263 279.819H480.783V283.299H484.263V279.819Z" fill="#F0F0F0"/>
<path d="M484.263 285.653H480.783V289.133H484.263V285.653Z" fill="#F0F0F0"/>
<path d="M484.263 291.487H480.783V294.967H484.263V291.487Z" fill="#F0F0F0"/>
<path d="M484.263 297.321H480.783V300.801H484.263V297.321Z" fill="#F0F0F0"/>
<path d="M484.263 303.154H480.783V306.635H484.263V303.154Z" fill="#F0F0F0"/>
<path d="M484.263 308.988H480.783V312.469H484.263V308.988Z" fill="#F0F0F0"/>
<path d="M484.263 314.822H480.783V318.302H484.263V314.822Z" fill="#F0F0F0"/>
<path d="M484.263 338.158H480.783V341.638H484.263V338.158Z" fill="#F0F0F0"/>
<path d="M478.738 273.985H475.258V277.465H478.738V273.985Z" fill="#F0F0F0"/>
<path d="M478.738 279.819H475.258V283.299H478.738V279.819Z" fill="#F0F0F0"/>
<path d="M478.738 285.653H475.258V289.133H478.738V285.653Z" fill="#F0F0F0"/>
<path d="M478.738 291.487H475.258V294.967H478.738V291.487Z" fill="#F0F0F0"/>
<path d="M478.738 297.321H475.258V300.801H478.738V297.321Z" fill="#F0F0F0"/>
<path d="M478.738 303.154H475.258V306.635H478.738V303.154Z" fill="#F0F0F0"/>
<path d="M478.738 308.988H475.258V312.469H478.738V308.988Z" fill="#F0F0F0"/>
<path d="M478.738 314.822H475.258V318.302H478.738V314.822Z" fill="#F0F0F0"/>
<path d="M473.211 273.985H469.73V277.465H473.211V273.985Z" fill="#F0F0F0"/>
<path d="M473.211 279.819H469.73V283.299H473.211V279.819Z" fill="#F0F0F0"/>
<path d="M473.211 285.653H469.73V289.133H473.211V285.653Z" fill="#F0F0F0"/>
<path d="M473.211 291.487H469.73V294.967H473.211V291.487Z" fill="#F0F0F0"/>
<path d="M473.211 297.321H469.73V300.801H473.211V297.321Z" fill="#F0F0F0"/>
<path d="M473.211 303.154H469.73V306.635H473.211V303.154Z" fill="#F0F0F0"/>
<path d="M473.211 314.822H469.73V318.302H473.211V314.822Z" fill="#F0F0F0"/>
<path d="M473.211 320.656H469.73V324.136H473.211V320.656Z" fill="#F0F0F0"/>
<path d="M473.211 338.158H469.73V341.638H473.211V338.158Z" fill="#F0F0F0"/>
<path d="M473.211 343.992H469.73V347.472H473.211V343.992Z" fill="#F0F0F0"/>
<path d="M473.211 349.826H469.73V353.306H473.211V349.826Z" fill="#F0F0F0"/>
<path d="M473.211 355.659H469.73V359.14H473.211V355.659Z" fill="#F0F0F0"/>
<path d="M473.211 361.493H469.73V364.974H473.211V361.493Z" fill="#F0F0F0"/>
<path d="M473.211 367.327H469.73V370.807H473.211V367.327Z" fill="#F0F0F0"/>
<path d="M473.211 373.161H469.73V376.641H473.211V373.161Z" fill="#F0F0F0"/>
<path d="M467.683 273.985H464.203V277.465H467.683V273.985Z" fill="#F0F0F0"/>
<path d="M467.683 279.819H464.203V283.299H467.683V279.819Z" fill="#F0F0F0"/>
<path d="M467.683 285.653H464.203V289.133H467.683V285.653Z" fill="#F0F0F0"/>
<path d="M467.683 291.487H464.203V294.967H467.683V291.487Z" fill="#F0F0F0"/>
<path d="M467.683 297.321H464.203V300.801H467.683V297.321Z" fill="#F0F0F0"/>
<path d="M467.683 303.154H464.203V306.635H467.683V303.154Z" fill="#F0F0F0"/>
<path d="M467.683 320.656H464.203V324.136H467.683V320.656Z" fill="#F0F0F0"/>
<path d="M467.683 326.49H464.203V329.97H467.683V326.49Z" fill="#F0F0F0"/>
<path d="M467.683 332.324H464.203V335.804H467.683V332.324Z" fill="#F0F0F0"/>
<path d="M467.683 338.158H464.203V341.638H467.683V338.158Z" fill="#F0F0F0"/>
<path d="M467.683 343.992H464.203V347.472H467.683V343.992Z" fill="#F0F0F0"/>
<path d="M467.683 349.826H464.203V353.306H467.683V349.826Z" fill="#F0F0F0"/>
<path d="M467.683 355.659H464.203V359.14H467.683V355.659Z" fill="#F0F0F0"/>
<path d="M467.683 361.493H464.203V364.974H467.683V361.493Z" fill="#F0F0F0"/>
<path d="M467.683 367.327H464.203V370.807H467.683V367.327Z" fill="#F0F0F0"/>
<path d="M467.683 373.161H464.203V376.641H467.683V373.161Z" fill="#F0F0F0"/>
<path d="M467.683 378.995H464.203V382.475H467.683V378.995Z" fill="#F0F0F0"/>
<path d="M467.683 390.663H464.203V394.143H467.683V390.663Z" fill="#F0F0F0"/>
<path d="M462.158 273.985H458.678V277.465H462.158V273.985Z" fill="#F0F0F0"/>
<path d="M462.158 279.819H458.678V283.299H462.158V279.819Z" fill="#F0F0F0"/>
<path d="M462.158 285.653H458.678V289.133H462.158V285.653Z" fill="#F0F0F0"/>
<path d="M462.158 291.487H458.678V294.967H462.158V291.487Z" fill="#F0F0F0"/>
<path d="M462.158 297.321H458.678V300.801H462.158V297.321Z" fill="#F0F0F0"/>
<path d="M462.158 303.154H458.678V306.635H462.158V303.154Z" fill="#F0F0F0"/>
<path d="M462.158 320.656H458.678V324.136H462.158V320.656Z" fill="#F0F0F0"/>
<path d="M462.158 326.49H458.678V329.97H462.158V326.49Z" fill="#F0F0F0"/>
<path d="M462.158 332.324H458.678V335.804H462.158V332.324Z" fill="#F0F0F0"/>
<path d="M462.158 338.158H458.678V341.638H462.158V338.158Z" fill="#F0F0F0"/>
<path d="M462.158 355.659H458.678V359.14H462.158V355.659Z" fill="#F0F0F0"/>
<path d="M462.158 361.493H458.678V364.974H462.158V361.493Z" fill="#F0F0F0"/>
<path d="M462.158 367.327H458.678V370.807H462.158V367.327Z" fill="#F0F0F0"/>
<path d="M462.158 373.161H458.678V376.641H462.158V373.161Z" fill="#F0F0F0"/>
<path d="M462.158 378.995H458.678V382.475H462.158V378.995Z" fill="#F0F0F0"/>
<path d="M462.158 390.663H458.678V394.143H462.158V390.663Z" fill="#F0F0F0"/>
<path d="M462.158 396.497H458.678V399.977H462.158V396.497Z" fill="#F0F0F0"/>
<path d="M412.006 328.231H408.525V331.711H412.006V328.231Z" fill="#F0F0F0"/>
<path d="M412.006 334.065H408.525V337.545H412.006V334.065Z" fill="#F0F0F0"/>
<path d="M412.006 339.899H408.525V343.379H412.006V339.899Z" fill="#F0F0F0"/>
<path d="M412.006 345.731H408.525V349.211H412.006V345.731Z" fill="#F0F0F0"/>
<path d="M412.006 351.566H408.525V355.047H412.006V351.566Z" fill="#F0F0F0"/>
<path d="M412.006 357.399H408.525V360.879H412.006V357.399Z" fill="#F0F0F0"/>
<path d="M412.006 363.234H408.525V366.714H412.006V363.234Z" fill="#F0F0F0"/>
<path d="M412.006 380.734H408.525V384.215H412.006V380.734Z" fill="#F0F0F0"/>
<path d="M412.006 386.568H408.525V390.048H412.006V386.568Z" fill="#F0F0F0"/>
<path d="M412.006 392.402H408.525V395.882H412.006V392.402Z" fill="#F0F0F0"/>
<path d="M406.478 328.231H402.998V331.711H406.478V328.231Z" fill="#F0F0F0"/>
<path d="M406.478 334.065H402.998V337.545H406.478V334.065Z" fill="#F0F0F0"/>
<path d="M406.478 339.899H402.998V343.379H406.478V339.899Z" fill="#F0F0F0"/>
<path d="M406.478 345.731H402.998V349.211H406.478V345.731Z" fill="#F0F0F0"/>
<path d="M406.478 351.566H402.998V355.047H406.478V351.566Z" fill="#F0F0F0"/>
<path d="M406.478 357.399H402.998V360.879H406.478V357.399Z" fill="#F0F0F0"/>
<path d="M406.478 363.234H402.998V366.714H406.478V363.234Z" fill="#F0F0F0"/>
<path d="M400.953 328.231H397.473V331.711H400.953V328.231Z" fill="#F0F0F0"/>
<path d="M400.953 334.065H397.473V337.545H400.953V334.065Z" fill="#F0F0F0"/>
<path d="M400.953 339.899H397.473V343.379H400.953V339.899Z" fill="#F0F0F0"/>
<path d="M400.953 345.731H397.473V349.211H400.953V345.731Z" fill="#F0F0F0"/>
<path d="M400.953 351.566H397.473V355.047H400.953V351.566Z" fill="#F0F0F0"/>
<path d="M400.953 357.399H397.473V360.879H400.953V357.399Z" fill="#F0F0F0"/>
<path d="M400.953 363.234H397.473V366.714H400.953V363.234Z" fill="#F0F0F0"/>
<path d="M395.426 328.231H391.945V331.711H395.426V328.231Z" fill="#F0F0F0"/>
<path d="M395.426 334.065H391.945V337.545H395.426V334.065Z" fill="#F0F0F0"/>
<path d="M395.426 339.899H391.945V343.379H395.426V339.899Z" fill="#F0F0F0"/>
<path d="M395.426 345.731H391.945V349.211H395.426V345.731Z" fill="#F0F0F0"/>
<path d="M395.426 351.566H391.945V355.047H395.426V351.566Z" fill="#F0F0F0"/>
<path d="M395.426 357.399H391.945V360.879H395.426V357.399Z" fill="#F0F0F0"/>
<path d="M395.426 363.234H391.945V366.714H395.426V363.234Z" fill="#F0F0F0"/>
<path d="M395.426 369.067H391.945V372.547H395.426V369.067Z" fill="#F0F0F0"/>
<path d="M395.426 374.901H391.945V378.381H395.426V374.901Z" fill="#F0F0F0"/>
<path d="M395.426 380.734H391.945V384.215H395.426V380.734Z" fill="#F0F0F0"/>
<path d="M395.426 386.568H391.945V390.048H395.426V386.568Z" fill="#F0F0F0"/>
<path d="M389.898 328.231H386.418V331.711H389.898V328.231Z" fill="#F0F0F0"/>
<path d="M389.898 334.065H386.418V337.545H389.898V334.065Z" fill="#F0F0F0"/>
<path d="M389.898 339.899H386.418V343.379H389.898V339.899Z" fill="#F0F0F0"/>
<path d="M389.898 345.731H386.418V349.211H389.898V345.731Z" fill="#F0F0F0"/>
<path d="M389.898 351.566H386.418V355.047H389.898V351.566Z" fill="#F0F0F0"/>
<path d="M389.898 357.399H386.418V360.879H389.898V357.399Z" fill="#F0F0F0"/>
<path d="M389.898 363.234H386.418V366.714H389.898V363.234Z" fill="#F0F0F0"/>
<path d="M389.898 369.067H386.418V372.547H389.898V369.067Z" fill="#F0F0F0"/>
<path d="M389.898 374.901H386.418V378.381H389.898V374.901Z" fill="#F0F0F0"/>
<path d="M389.898 380.734H386.418V384.215H389.898V380.734Z" fill="#F0F0F0"/>
<path d="M389.898 386.568H386.418V390.048H389.898V386.568Z" fill="#F0F0F0"/>
<path d="M389.898 392.402H386.418V395.882H389.898V392.402Z" fill="#F0F0F0"/>
<path d="M389.898 409.904H386.418V413.384H389.898V409.904Z" fill="#F0F0F0"/>
<path d="M389.898 415.738H386.418V419.218H389.898V415.738Z" fill="#F0F0F0"/>
<path d="M384.373 328.231H380.893V331.711H384.373V328.231Z" fill="#F0F0F0"/>
<path d="M384.373 334.065H380.893V337.545H384.373V334.065Z" fill="#F0F0F0"/>
<path d="M384.373 339.899H380.893V343.379H384.373V339.899Z" fill="#F0F0F0"/>
<path d="M384.373 357.399H380.893V360.879H384.373V357.399Z" fill="#F0F0F0"/>
<path d="M384.373 363.234H380.893V366.714H384.373V363.234Z" fill="#F0F0F0"/>
<path d="M384.373 369.067H380.893V372.547H384.373V369.067Z" fill="#F0F0F0"/>
<path d="M384.373 374.901H380.893V378.381H384.373V374.901Z" fill="#F0F0F0"/>
<path d="M384.373 380.734H380.893V384.215H384.373V380.734Z" fill="#F0F0F0"/>
<path d="M384.373 386.568H380.893V390.048H384.373V386.568Z" fill="#F0F0F0"/>
<path d="M384.373 392.402H380.893V395.882H384.373V392.402Z" fill="#F0F0F0"/>
<path d="M384.373 409.904H380.893V413.384H384.373V409.904Z" fill="#F0F0F0"/>
<path d="M384.373 415.738H380.893V419.218H384.373V415.738Z" fill="#F0F0F0"/>
<path d="M384.373 421.572H380.893V425.052H384.373V421.572Z" fill="#F0F0F0"/>
<path d="M326.443 293.228H322.963V296.708H326.443V293.228Z" fill="#F0F0F0"/>
<path d="M326.443 299.061H322.963V302.542H326.443V299.061Z" fill="#F0F0F0"/>
<path d="M326.443 304.895H322.963V308.375H326.443V304.895Z" fill="#F0F0F0"/>
<path d="M326.443 310.729H322.963V314.209H326.443V310.729Z" fill="#F0F0F0"/>
<path d="M326.443 316.563H322.963V320.043H326.443V316.563Z" fill="#F0F0F0"/>
<path d="M326.443 322.397H322.963V325.877H326.443V322.397Z" fill="#F0F0F0"/>
<path d="M326.443 328.231H322.963V331.711H326.443V328.231Z" fill="#F0F0F0"/>
<path d="M326.443 334.065H322.963V337.545H326.443V334.065Z" fill="#F0F0F0"/>
<path d="M326.443 339.899H322.963V343.379H326.443V339.899Z" fill="#F0F0F0"/>
<path d="M326.443 345.731H322.963V349.211H326.443V345.731Z" fill="#F0F0F0"/>
<path d="M326.443 351.566H322.963V355.047H326.443V351.566Z" fill="#F0F0F0"/>
<path d="M326.443 357.399H322.963V360.879H326.443V357.399Z" fill="#F0F0F0"/>
<path d="M326.443 363.234H322.963V366.714H326.443V363.234Z" fill="#F0F0F0"/>
<path d="M326.443 369.067H322.963V372.547H326.443V369.067Z" fill="#F0F0F0"/>
<path d="M326.443 374.901H322.963V378.381H326.443V374.901Z" fill="#F0F0F0"/>
<path d="M326.443 380.734H322.963V384.215H326.443V380.734Z" fill="#F0F0F0"/>
<path d="M326.443 386.568H322.963V390.048H326.443V386.568Z" fill="#F0F0F0"/>
<path d="M326.443 392.402H322.963V395.882H326.443V392.402Z" fill="#F0F0F0"/>
<path d="M326.443 398.236H322.963V401.716H326.443V398.236Z" fill="#F0F0F0"/>
<path d="M326.443 404.07H322.963V407.55H326.443V404.07Z" fill="#F0F0F0"/>
<path d="M326.443 409.904H322.963V413.384H326.443V409.904Z" fill="#F0F0F0"/>
<path d="M326.443 415.738H322.963V419.218H326.443V415.738Z" fill="#F0F0F0"/>
<path d="M326.443 421.572H322.963V425.052H326.443V421.572Z" fill="#F0F0F0"/>
<path d="M320.916 293.228H317.436V296.708H320.916V293.228Z" fill="#F0F0F0"/>
<path d="M320.916 299.061H317.436V302.542H320.916V299.061Z" fill="#F0F0F0"/>
<path d="M320.916 304.895H317.436V308.375H320.916V304.895Z" fill="#F0F0F0"/>
<path d="M320.916 310.729H317.436V314.209H320.916V310.729Z" fill="#F0F0F0"/>
<path d="M320.916 316.563H317.436V320.043H320.916V316.563Z" fill="#F0F0F0"/>
<path d="M320.916 322.397H317.436V325.877H320.916V322.397Z" fill="#F0F0F0"/>
<path d="M320.916 328.231H317.436V331.711H320.916V328.231Z" fill="#F0F0F0"/>
<path d="M320.916 334.065H317.436V337.545H320.916V334.065Z" fill="#F0F0F0"/>
<path d="M320.916 339.899H317.436V343.379H320.916V339.899Z" fill="#F0F0F0"/>
<path d="M320.916 345.731H317.436V349.211H320.916V345.731Z" fill="#F0F0F0"/>
<path d="M320.916 351.566H317.436V355.047H320.916V351.566Z" fill="#F0F0F0"/>
<path d="M320.916 357.399H317.436V360.879H320.916V357.399Z" fill="#F0F0F0"/>
<path d="M320.916 363.234H317.436V366.714H320.916V363.234Z" fill="#F0F0F0"/>
<path d="M320.916 369.067H317.436V372.547H320.916V369.067Z" fill="#F0F0F0"/>
<path d="M320.916 374.901H317.436V378.381H320.916V374.901Z" fill="#F0F0F0"/>
<path d="M320.916 380.734H317.436V384.215H320.916V380.734Z" fill="#F0F0F0"/>
<path d="M320.916 386.568H317.436V390.048H320.916V386.568Z" fill="#F0F0F0"/>
<path d="M320.916 392.402H317.436V395.882H320.916V392.402Z" fill="#F0F0F0"/>
<path d="M320.916 398.236H317.436V401.716H320.916V398.236Z" fill="#F0F0F0"/>
<path d="M315.388 293.228H311.908V296.708H315.388V293.228Z" fill="#F0F0F0"/>
<path d="M315.388 299.061H311.908V302.542H315.388V299.061Z" fill="#F0F0F0"/>
<path d="M315.388 304.895H311.908V308.375H315.388V304.895Z" fill="#F0F0F0"/>
<path d="M315.388 310.729H311.908V314.209H315.388V310.729Z" fill="#F0F0F0"/>
<path d="M315.388 316.563H311.908V320.043H315.388V316.563Z" fill="#F0F0F0"/>
<path d="M315.388 322.397H311.908V325.877H315.388V322.397Z" fill="#F0F0F0"/>
<path d="M315.388 328.231H311.908V331.711H315.388V328.231Z" fill="#F0F0F0"/>
<path d="M315.388 334.065H311.908V337.545H315.388V334.065Z" fill="#F0F0F0"/>
<path d="M315.388 339.899H311.908V343.379H315.388V339.899Z" fill="#F0F0F0"/>
<path d="M315.388 345.731H311.908V349.211H315.388V345.731Z" fill="#F0F0F0"/>
<path d="M315.388 351.566H311.908V355.047H315.388V351.566Z" fill="#F0F0F0"/>
<path d="M315.388 357.399H311.908V360.879H315.388V357.399Z" fill="#F0F0F0"/>
<path d="M315.388 363.234H311.908V366.714H315.388V363.234Z" fill="#F0F0F0"/>
<path d="M315.388 369.067H311.908V372.547H315.388V369.067Z" fill="#F0F0F0"/>
<path d="M315.388 374.901H311.908V378.381H315.388V374.901Z" fill="#F0F0F0"/>
<path d="M315.388 380.734H311.908V384.215H315.388V380.734Z" fill="#F0F0F0"/>
<path d="M315.388 386.568H311.908V390.048H315.388V386.568Z" fill="#F0F0F0"/>
<path d="M315.388 392.402H311.908V395.882H315.388V392.402Z" fill="#F0F0F0"/>
<path d="M315.388 398.236H311.908V401.716H315.388V398.236Z" fill="#F0F0F0"/>
<path d="M309.861 293.228H306.381V296.708H309.861V293.228Z" fill="#F0F0F0"/>
<path d="M309.861 299.061H306.381V302.542H309.861V299.061Z" fill="#F0F0F0"/>
<path d="M309.861 304.895H306.381V308.375H309.861V304.895Z" fill="#F0F0F0"/>
<path d="M309.861 310.729H306.381V314.209H309.861V310.729Z" fill="#F0F0F0"/>
<path d="M309.861 316.563H306.381V320.043H309.861V316.563Z" fill="#F0F0F0"/>
<path d="M309.861 322.397H306.381V325.877H309.861V322.397Z" fill="#F0F0F0"/>
<path d="M309.861 328.231H306.381V331.711H309.861V328.231Z" fill="#F0F0F0"/>
<path d="M309.861 334.065H306.381V337.545H309.861V334.065Z" fill="#F0F0F0"/>
<path d="M309.861 339.899H306.381V343.379H309.861V339.899Z" fill="#F0F0F0"/>
<path d="M309.861 345.731H306.381V349.211H309.861V345.731Z" fill="#F0F0F0"/>
<path d="M309.861 351.566H306.381V355.047H309.861V351.566Z" fill="#F0F0F0"/>
<path d="M309.861 357.399H306.381V360.879H309.861V357.399Z" fill="#F0F0F0"/>
<path d="M309.861 363.234H306.381V366.714H309.861V363.234Z" fill="#F0F0F0"/>
<path d="M309.861 369.067H306.381V372.547H309.861V369.067Z" fill="#F0F0F0"/>
<path d="M309.861 374.901H306.381V378.381H309.861V374.901Z" fill="#F0F0F0"/>
<path d="M304.336 293.228H300.855V296.708H304.336V293.228Z" fill="#F0F0F0"/>
<path d="M304.336 299.061H300.855V302.542H304.336V299.061Z" fill="#F0F0F0"/>
<path d="M304.336 304.895H300.855V308.375H304.336V304.895Z" fill="#F0F0F0"/>
<path d="M304.336 310.729H300.855V314.209H304.336V310.729Z" fill="#F0F0F0"/>
<path d="M304.336 316.563H300.855V320.043H304.336V316.563Z" fill="#F0F0F0"/>
<path d="M304.336 322.397H300.855V325.877H304.336V322.397Z" fill="#F0F0F0"/>
<path d="M304.336 328.231H300.855V331.711H304.336V328.231Z" fill="#F0F0F0"/>
<path d="M304.336 334.065H300.855V337.545H304.336V334.065Z" fill="#F0F0F0"/>
<path d="M304.336 339.899H300.855V343.379H304.336V339.899Z" fill="#F0F0F0"/>
<path d="M304.336 345.731H300.855V349.211H304.336V345.731Z" fill="#F0F0F0"/>
<path d="M304.336 351.566H300.855V355.047H304.336V351.566Z" fill="#F0F0F0"/>
<path d="M304.336 357.399H300.855V360.879H304.336V357.399Z" fill="#F0F0F0"/>
<path d="M304.336 363.234H300.855V366.714H304.336V363.234Z" fill="#F0F0F0"/>
<path d="M298.808 293.228H295.328V296.708H298.808V293.228Z" fill="#F0F0F0"/>
<path d="M298.808 299.061H295.328V302.542H298.808V299.061Z" fill="#F0F0F0"/>
<path d="M298.808 304.895H295.328V308.375H298.808V304.895Z" fill="#F0F0F0"/>
<path d="M298.808 310.729H295.328V314.209H298.808V310.729Z" fill="#F0F0F0"/>
<path d="M298.808 316.563H295.328V320.043H298.808V316.563Z" fill="#F0F0F0"/>
<path d="M298.808 322.397H295.328V325.877H298.808V322.397Z" fill="#F0F0F0"/>
<path d="M298.808 328.231H295.328V331.711H298.808V328.231Z" fill="#F0F0F0"/>
<path d="M298.808 334.065H295.328V337.545H298.808V334.065Z" fill="#F0F0F0"/>
<path d="M298.808 339.899H295.328V343.379H298.808V339.899Z" fill="#F0F0F0"/>
<path d="M298.808 345.731H295.328V349.211H298.808V345.731Z" fill="#F0F0F0"/>
<path d="M298.808 351.566H295.328V355.047H298.808V351.566Z" fill="#F0F0F0"/>
<path d="M298.808 357.399H295.328V360.879H298.808V357.399Z" fill="#F0F0F0"/>
<path d="M621.41 291.487H617.93V294.967H621.41V291.487Z" fill="#F0F0F0"/>
<path d="M621.41 297.321H617.93V300.801H621.41V297.321Z" fill="#F0F0F0"/>
<path d="M621.41 303.154H617.93V306.635H621.41V303.154Z" fill="#F0F0F0"/>
<path d="M621.41 308.988H617.93V312.469H621.41V308.988Z" fill="#F0F0F0"/>
<path d="M621.41 314.822H617.93V318.302H621.41V314.822Z" fill="#F0F0F0"/>
<path d="M621.41 320.656H617.93V324.136H621.41V320.656Z" fill="#F0F0F0"/>
<path d="M621.41 326.49H617.93V329.97H621.41V326.49Z" fill="#F0F0F0"/>
<path d="M621.41 332.324H617.93V335.804H621.41V332.324Z" fill="#F0F0F0"/>
<path d="M621.41 338.158H617.93V341.638H621.41V338.158Z" fill="#F0F0F0"/>
<path d="M621.41 343.992H617.93V347.472H621.41V343.992Z" fill="#F0F0F0"/>
<path d="M621.41 349.826H617.93V353.306H621.41V349.826Z" fill="#F0F0F0"/>
<path d="M621.41 355.659H617.93V359.14H621.41V355.659Z" fill="#F0F0F0"/>
<path d="M621.41 361.493H617.93V364.974H621.41V361.493Z" fill="#F0F0F0"/>
<path d="M621.41 367.327H617.93V370.807H621.41V367.327Z" fill="#F0F0F0"/>
<path d="M621.41 373.161H617.93V376.641H621.41V373.161Z" fill="#F0F0F0"/>
<path d="M621.41 378.995H617.93V382.475H621.41V378.995Z" fill="#F0F0F0"/>
<path d="M621.41 384.829H617.93V388.309H621.41V384.829Z" fill="#F0F0F0"/>
<path d="M621.41 396.497H617.93V399.977H621.41V396.497Z" fill="#F0F0F0"/>
<path d="M621.41 402.331H617.93V405.811H621.41V402.331Z" fill="#F0F0F0"/>
<path d="M621.41 408.164H617.93V411.645H621.41V408.164Z" fill="#F0F0F0"/>
<path d="M621.41 413.998H617.93V417.478H621.41V413.998Z" fill="#F0F0F0"/>
<path d="M621.41 419.832H617.93V423.312H621.41V419.832Z" fill="#F0F0F0"/>
<path d="M615.883 291.487H612.402V294.967H615.883V291.487Z" fill="#F0F0F0"/>
<path d="M615.883 297.321H612.402V300.801H615.883V297.321Z" fill="#F0F0F0"/>
<path d="M615.883 303.154H612.402V306.635H615.883V303.154Z" fill="#F0F0F0"/>
<path d="M615.883 308.988H612.402V312.469H615.883V308.988Z" fill="#F0F0F0"/>
<path d="M615.883 314.822H612.402V318.302H615.883V314.822Z" fill="#F0F0F0"/>
<path d="M615.883 320.656H612.402V324.136H615.883V320.656Z" fill="#F0F0F0"/>
<path d="M615.883 326.49H612.402V329.97H615.883V326.49Z" fill="#F0F0F0"/>
<path d="M615.883 332.324H612.402V335.804H615.883V332.324Z" fill="#F0F0F0"/>
<path d="M615.883 338.158H612.402V341.638H615.883V338.158Z" fill="#F0F0F0"/>
<path d="M615.883 343.992H612.402V347.472H615.883V343.992Z" fill="#F0F0F0"/>
<path d="M615.883 349.826H612.402V353.306H615.883V349.826Z" fill="#F0F0F0"/>
<path d="M615.883 355.659H612.402V359.14H615.883V355.659Z" fill="#F0F0F0"/>
<path d="M615.883 361.493H612.402V364.974H615.883V361.493Z" fill="#F0F0F0"/>
<path d="M615.883 367.327H612.402V370.807H615.883V367.327Z" fill="#F0F0F0"/>
<path d="M615.883 373.161H612.402V376.641H615.883V373.161Z" fill="#F0F0F0"/>
<path d="M615.883 378.995H612.402V382.475H615.883V378.995Z" fill="#F0F0F0"/>
<path d="M615.883 413.998H612.402V417.478H615.883V413.998Z" fill="#F0F0F0"/>
<path d="M615.883 419.832H612.402V423.312H615.883V419.832Z" fill="#F0F0F0"/>
<path d="M610.357 291.487H606.877V294.967H610.357V291.487Z" fill="#F0F0F0"/>
<path d="M610.357 297.321H606.877V300.801H610.357V297.321Z" fill="#F0F0F0"/>
<path d="M610.357 303.154H606.877V306.635H610.357V303.154Z" fill="#F0F0F0"/>
<path d="M610.357 308.988H606.877V312.469H610.357V308.988Z" fill="#F0F0F0"/>
<path d="M610.357 314.822H606.877V318.302H610.357V314.822Z" fill="#F0F0F0"/>
<path d="M610.357 320.656H606.877V324.136H610.357V320.656Z" fill="#F0F0F0"/>
<path d="M610.357 326.49H606.877V329.97H610.357V326.49Z" fill="#F0F0F0"/>
<path d="M610.357 332.324H606.877V335.804H610.357V332.324Z" fill="#F0F0F0"/>
<path d="M610.357 338.158H606.877V341.638H610.357V338.158Z" fill="#F0F0F0"/>
<path d="M610.357 343.992H606.877V347.472H610.357V343.992Z" fill="#F0F0F0"/>
<path d="M610.357 349.826H606.877V353.306H610.357V349.826Z" fill="#F0F0F0"/>
<path d="M610.357 355.659H606.877V359.14H610.357V355.659Z" fill="#F0F0F0"/>
<path d="M610.357 361.493H606.877V364.974H610.357V361.493Z" fill="#F0F0F0"/>
<path d="M610.357 367.327H606.877V370.807H610.357V367.327Z" fill="#F0F0F0"/>
<path d="M610.357 373.161H606.877V376.641H610.357V373.161Z" fill="#F0F0F0"/>
<path d="M610.357 378.995H606.877V382.475H610.357V378.995Z" fill="#F0F0F0"/>
<path d="M610.357 390.663H606.877V394.143H610.357V390.663Z" fill="#F0F0F0"/>
<path d="M610.357 396.497H606.877V399.977H610.357V396.497Z" fill="#F0F0F0"/>
<path d="M610.357 402.331H606.877V405.811H610.357V402.331Z" fill="#F0F0F0"/>
<path d="M610.357 408.164H606.877V411.645H610.357V408.164Z" fill="#F0F0F0"/>
<path d="M610.357 419.832H606.877V423.312H610.357V419.832Z" fill="#F0F0F0"/>
<path d="M513.945 332.324H510.465V335.804H513.945V332.324Z" fill="#F0F0F0"/>
<path d="M513.945 338.158H510.465V341.638H513.945V338.158Z" fill="#F0F0F0"/>
<path d="M513.945 343.992H510.465V347.472H513.945V343.992Z" fill="#F0F0F0"/>
<path d="M513.945 349.826H510.465V353.306H513.945V349.826Z" fill="#F0F0F0"/>
<path d="M513.945 355.659H510.465V359.14H513.945V355.659Z" fill="#F0F0F0"/>
<path d="M513.945 361.493H510.465V364.974H513.945V361.493Z" fill="#F0F0F0"/>
<path d="M513.945 367.327H510.465V370.807H513.945V367.327Z" fill="#F0F0F0"/>
<path d="M513.945 373.161H510.465V376.641H513.945V373.161Z" fill="#F0F0F0"/>
<path d="M513.945 378.995H510.465V382.475H513.945V378.995Z" fill="#F0F0F0"/>
<path d="M513.945 384.829H510.465V388.309H513.945V384.829Z" fill="#F0F0F0"/>
<path d="M513.945 390.663H510.465V394.143H513.945V390.663Z" fill="#F0F0F0"/>
<path d="M513.945 396.497H510.465V399.977H513.945V396.497Z" fill="#F0F0F0"/>
<path d="M513.945 402.331H510.465V405.811H513.945V402.331Z" fill="#F0F0F0"/>
<path d="M513.945 413.998H510.465V417.478H513.945V413.998Z" fill="#F0F0F0"/>
<path d="M513.945 419.832H510.465V423.312H513.945V419.832Z" fill="#F0F0F0"/>
<path d="M513.945 425.666H510.465V429.146H513.945V425.666Z" fill="#F0F0F0"/>
<path d="M513.945 431.5H510.465V434.98H513.945V431.5Z" fill="#F0F0F0"/>
<path d="M513.945 443.168H510.465V446.648H513.945V443.168Z" fill="#F0F0F0"/>
<path d="M513.945 449.002H510.465V452.482H513.945V449.002Z" fill="#F0F0F0"/>
<path d="M513.945 454.835H510.465V458.316H513.945V454.835Z" fill="#F0F0F0"/>
<path d="M508.418 332.324H504.938V335.804H508.418V332.324Z" fill="#F0F0F0"/>
<path d="M508.418 338.158H504.938V341.638H508.418V338.158Z" fill="#F0F0F0"/>
<path d="M508.418 343.992H504.938V347.472H508.418V343.992Z" fill="#F0F0F0"/>
<path d="M508.418 349.826H504.938V353.306H508.418V349.826Z" fill="#F0F0F0"/>
<path d="M508.418 355.659H504.938V359.14H508.418V355.659Z" fill="#F0F0F0"/>
<path d="M508.418 361.493H504.938V364.974H508.418V361.493Z" fill="#F0F0F0"/>
<path d="M508.418 367.327H504.938V370.807H508.418V367.327Z" fill="#F0F0F0"/>
<path d="M508.418 373.161H504.938V376.641H508.418V373.161Z" fill="#F0F0F0"/>
<path d="M508.418 378.995H504.938V382.475H508.418V378.995Z" fill="#F0F0F0"/>
<path d="M508.418 384.829H504.938V388.309H508.418V384.829Z" fill="#F0F0F0"/>
<path d="M508.418 390.663H504.938V394.143H508.418V390.663Z" fill="#F0F0F0"/>
<path d="M508.418 396.497H504.938V399.977H508.418V396.497Z" fill="#F0F0F0"/>
<path d="M508.418 402.331H504.938V405.811H508.418V402.331Z" fill="#F0F0F0"/>
<path d="M508.418 419.832H504.938V423.312H508.418V419.832Z" fill="#F0F0F0"/>
<path d="M508.418 425.666H504.938V429.146H508.418V425.666Z" fill="#F0F0F0"/>
<path d="M508.418 437.334H504.938V440.814H508.418V437.334Z" fill="#F0F0F0"/>
<path d="M508.418 443.168H504.938V446.648H508.418V443.168Z" fill="#F0F0F0"/>
<path d="M508.418 449.002H504.938V452.482H508.418V449.002Z" fill="#F0F0F0"/>
<path d="M508.418 454.835H504.938V458.316H508.418V454.835Z" fill="#F0F0F0"/>
<path d="M502.89 332.324H499.41V335.804H502.89V332.324Z" fill="#F0F0F0"/>
<path d="M502.89 338.158H499.41V341.638H502.89V338.158Z" fill="#F0F0F0"/>
<path d="M502.89 343.992H499.41V347.472H502.89V343.992Z" fill="#F0F0F0"/>
<path d="M502.89 349.826H499.41V353.306H502.89V349.826Z" fill="#F0F0F0"/>
<path d="M502.89 355.659H499.41V359.14H502.89V355.659Z" fill="#F0F0F0"/>
<path d="M502.89 361.493H499.41V364.974H502.89V361.493Z" fill="#F0F0F0"/>
<path d="M502.89 367.327H499.41V370.807H502.89V367.327Z" fill="#F0F0F0"/>
<path d="M502.89 373.161H499.41V376.641H502.89V373.161Z" fill="#F0F0F0"/>
<path d="M502.89 378.995H499.41V382.475H502.89V378.995Z" fill="#F0F0F0"/>
<path d="M502.89 384.829H499.41V388.309H502.89V384.829Z" fill="#F0F0F0"/>
<path d="M502.89 390.663H499.41V394.143H502.89V390.663Z" fill="#F0F0F0"/>
<path d="M502.89 396.497H499.41V399.977H502.89V396.497Z" fill="#F0F0F0"/>
<path d="M502.89 402.331H499.41V405.811H502.89V402.331Z" fill="#F0F0F0"/>
<path d="M502.89 408.164H499.41V411.645H502.89V408.164Z" fill="#F0F0F0"/>
<path d="M502.89 419.832H499.41V423.312H502.89V419.832Z" fill="#F0F0F0"/>
<path d="M502.89 431.5H499.41V434.98H502.89V431.5Z" fill="#F0F0F0"/>
<path d="M502.89 437.334H499.41V440.814H502.89V437.334Z" fill="#F0F0F0"/>
<path d="M502.89 443.168H499.41V446.648H502.89V443.168Z" fill="#F0F0F0"/>
<path d="M502.89 449.002H499.41V452.482H502.89V449.002Z" fill="#F0F0F0"/>
<path d="M502.89 454.835H499.41V458.316H502.89V454.835Z" fill="#F0F0F0"/>
<path d="M536.461 365.588H532.98V369.068H536.461V365.588Z" fill="#F0F0F0"/>
<path d="M536.461 371.422H532.98V374.902H536.461V371.422Z" fill="#F0F0F0"/>
<path d="M536.461 377.255H532.98V380.736H536.461V377.255Z" fill="#F0F0F0"/>
<path d="M536.461 383.089H532.98V386.57H536.461V383.089Z" fill="#F0F0F0"/>
<path d="M536.461 388.923H532.98V392.404H536.461V388.923Z" fill="#F0F0F0"/>
<path d="M536.461 394.757H532.98V398.237H536.461V394.757Z" fill="#F0F0F0"/>
<path d="M536.461 412.259H532.98V415.739H536.461V412.259Z" fill="#F0F0F0"/>
<path d="M536.461 418.093H532.98V421.573H536.461V418.093Z" fill="#F0F0F0"/>
<path d="M536.461 423.925H532.98V427.405H536.461V423.925Z" fill="#F0F0F0"/>
<path d="M536.461 429.76H532.98V433.241H536.461V429.76Z" fill="#F0F0F0"/>
<path d="M536.461 435.593H532.98V439.073H536.461V435.593Z" fill="#F0F0F0"/>
<path d="M536.461 441.427H532.98V444.907H536.461V441.427Z" fill="#F0F0F0"/>
<path d="M536.461 447.261H532.98V450.741H536.461V447.261Z" fill="#F0F0F0"/>
<path d="M530.933 365.588H527.453V369.068H530.933V365.588Z" fill="#F0F0F0"/>
<path d="M530.933 371.422H527.453V374.902H530.933V371.422Z" fill="#F0F0F0"/>
<path d="M530.933 377.255H527.453V380.736H530.933V377.255Z" fill="#F0F0F0"/>
<path d="M530.933 383.089H527.453V386.57H530.933V383.089Z" fill="#F0F0F0"/>
<path d="M530.933 388.923H527.453V392.404H530.933V388.923Z" fill="#F0F0F0"/>
<path d="M530.933 394.757H527.453V398.237H530.933V394.757Z" fill="#F0F0F0"/>
<path d="M530.933 412.259H527.453V415.739H530.933V412.259Z" fill="#F0F0F0"/>
<path d="M530.933 418.093H527.453V421.573H530.933V418.093Z" fill="#F0F0F0"/>
<path d="M530.933 423.925H527.453V427.405H530.933V423.925Z" fill="#F0F0F0"/>
<path d="M530.933 429.76H527.453V433.241H530.933V429.76Z" fill="#F0F0F0"/>
<path d="M530.933 435.593H527.453V439.073H530.933V435.593Z" fill="#F0F0F0"/>
<path d="M530.933 441.427H527.453V444.907H530.933V441.427Z" fill="#F0F0F0"/>
<path d="M530.933 453.095H527.453V456.575H530.933V453.095Z" fill="#F0F0F0"/>
<path d="M347.322 339.899H343.842V343.379H347.322V339.899Z" fill="#F0F0F0"/>
<path d="M347.322 345.731H343.842V349.211H347.322V345.731Z" fill="#F0F0F0"/>
<path d="M347.322 351.566H343.842V355.047H347.322V351.566Z" fill="#F0F0F0"/>
<path d="M347.322 357.399H343.842V360.879H347.322V357.399Z" fill="#F0F0F0"/>
<path d="M347.322 363.234H343.842V366.714H347.322V363.234Z" fill="#F0F0F0"/>
<path d="M347.322 369.067H343.842V372.547H347.322V369.067Z" fill="#F0F0F0"/>
<path d="M347.322 374.901H343.842V378.381H347.322V374.901Z" fill="#F0F0F0"/>
<path d="M347.322 380.734H343.842V384.215H347.322V380.734Z" fill="#F0F0F0"/>
<path d="M347.322 386.568H343.842V390.048H347.322V386.568Z" fill="#F0F0F0"/>
<path d="M347.322 392.402H343.842V395.882H347.322V392.402Z" fill="#F0F0F0"/>
<path d="M347.322 398.236H343.842V401.716H347.322V398.236Z" fill="#F0F0F0"/>
<path d="M347.322 409.904H343.842V413.384H347.322V409.904Z" fill="#F0F0F0"/>
<path d="M347.322 415.738H343.842V419.218H347.322V415.738Z" fill="#F0F0F0"/>
<path d="M347.322 421.572H343.842V425.052H347.322V421.572Z" fill="#F0F0F0"/>
<path d="M347.322 427.406H343.842V430.886H347.322V427.406Z" fill="#F0F0F0"/>
<path d="M347.322 433.239H343.842V436.72H347.322V433.239Z" fill="#F0F0F0"/>
<path d="M347.322 439.073H343.842V442.553H347.322V439.073Z" fill="#F0F0F0"/>
<path d="M347.322 444.907H343.842V448.387H347.322V444.907Z" fill="#F0F0F0"/>
<path d="M347.322 450.741H343.842V454.221H347.322V450.741Z" fill="#F0F0F0"/>
<path d="M341.795 339.899H338.314V343.379H341.795V339.899Z" fill="#F0F0F0"/>
<path d="M341.795 345.731H338.314V349.211H341.795V345.731Z" fill="#F0F0F0"/>
<path d="M341.795 351.566H338.314V355.047H341.795V351.566Z" fill="#F0F0F0"/>
<path d="M341.795 357.399H338.314V360.879H341.795V357.399Z" fill="#F0F0F0"/>
<path d="M341.795 363.234H338.314V366.714H341.795V363.234Z" fill="#F0F0F0"/>
<path d="M341.795 369.067H338.314V372.547H341.795V369.067Z" fill="#F0F0F0"/>
<path d="M341.795 374.901H338.314V378.381H341.795V374.901Z" fill="#F0F0F0"/>
<path d="M341.795 380.734H338.314V384.215H341.795V380.734Z" fill="#F0F0F0"/>
<path d="M341.795 386.568H338.314V390.048H341.795V386.568Z" fill="#F0F0F0"/>
<path d="M341.795 392.402H338.314V395.882H341.795V392.402Z" fill="#F0F0F0"/>
<path d="M341.795 398.236H338.314V401.716H341.795V398.236Z" fill="#F0F0F0"/>
<path d="M341.795 404.07H338.314V407.55H341.795V404.07Z" fill="#F0F0F0"/>
<path d="M341.795 409.904H338.314V413.384H341.795V409.904Z" fill="#F0F0F0"/>
<path d="M341.795 415.738H338.314V419.218H341.795V415.738Z" fill="#F0F0F0"/>
<path d="M341.795 421.572H338.314V425.052H341.795V421.572Z" fill="#F0F0F0"/>
<path d="M341.795 427.406H338.314V430.886H341.795V427.406Z" fill="#F0F0F0"/>
<path d="M341.795 433.239H338.314V436.72H341.795V433.239Z" fill="#F0F0F0"/>
<path d="M341.795 439.073H338.314V442.553H341.795V439.073Z" fill="#F0F0F0"/>
<path d="M341.795 444.907H338.314V448.387H341.795V444.907Z" fill="#F0F0F0"/>
<path d="M341.795 450.741H338.314V454.221H341.795V450.741Z" fill="#F0F0F0"/>
<path d="M374.545 362.62H371.064V366.1H374.545V362.62Z" fill="#F0F0F0"/>
<path d="M374.545 368.452H371.064V371.933H374.545V368.452Z" fill="#F0F0F0"/>
<path d="M374.545 374.288H371.064V377.768H374.545V374.288Z" fill="#F0F0F0"/>
<path d="M374.545 380.12H371.064V383.6H374.545V380.12Z" fill="#F0F0F0"/>
<path d="M374.545 385.955H371.064V389.436H374.545V385.955Z" fill="#F0F0F0"/>
<path d="M374.545 391.788H371.064V395.268H374.545V391.788Z" fill="#F0F0F0"/>
<path d="M374.545 397.622H371.064V401.102H374.545V397.622Z" fill="#F0F0F0"/>
<path d="M374.545 403.456H371.064V406.936H374.545V403.456Z" fill="#F0F0F0"/>
<path d="M374.545 409.29H371.064V412.77H374.545V409.29Z" fill="#F0F0F0"/>
<path d="M374.545 415.123H371.064V418.604H374.545V415.123Z" fill="#F0F0F0"/>
<path d="M369.019 362.62H365.539V366.1H369.019V362.62Z" fill="#F0F0F0"/>
<path d="M369.019 368.452H365.539V371.933H369.019V368.452Z" fill="#F0F0F0"/>
<path d="M369.019 374.288H365.539V377.768H369.019V374.288Z" fill="#F0F0F0"/>
<path d="M369.019 380.12H365.539V383.6H369.019V380.12Z" fill="#F0F0F0"/>
<path d="M369.019 385.955H365.539V389.436H369.019V385.955Z" fill="#F0F0F0"/>
<path d="M369.019 391.788H365.539V395.268H369.019V391.788Z" fill="#F0F0F0"/>
<path d="M369.019 397.622H365.539V401.102H369.019V397.622Z" fill="#F0F0F0"/>
<path d="M369.019 403.456H365.539V406.936H369.019V403.456Z" fill="#F0F0F0"/>
<path d="M369.019 409.29H365.539V412.77H369.019V409.29Z" fill="#F0F0F0"/>
<path d="M401.903 141.224H396.062V466.598H401.903V141.224Z" fill="#E0E0E0"/>
<path d="M511.773 141.224H505.932V466.598H511.773V141.224Z" fill="#E0E0E0"/>
<path d="M621.642 141.224H615.801V466.598H621.642V141.224Z" fill="#E0E0E0"/>
<path d="M248.499 510.664H200.211V441.102C200.211 437.705 202.964 434.951 206.362 434.951H242.349C245.746 434.951 248.5 437.704 248.5 441.102L248.499 510.664Z" fill="#F0F0F0"/>
<path d="M248.501 445.186H200.213V450.61H248.501V445.186Z" fill="#E6E6E6"/>
<path d="M239.699 501.494H227.67C225.839 501.494 224.355 502.978 224.355 504.808V510.666H243.013V504.808C243.013 502.976 241.529 501.494 239.699 501.494Z" fill="#E0E0E0"/>
<path d="M243.075 510.664H229.693C228.507 510.664 227.547 509.704 227.547 508.519C227.547 507.333 228.507 506.373 229.693 506.373H243.075C244.26 506.373 245.22 507.333 245.22 508.519C245.22 509.704 244.26 510.664 243.075 510.664Z" fill="#E6E6E6"/>
<path d="M457.47 125.911C475.143 121.738 486.087 104.028 481.914 86.3546C477.741 68.6814 460.031 57.7375 442.358 61.9106C424.684 66.0837 413.74 83.7937 417.914 101.467C422.087 119.14 439.797 130.084 457.47 125.911Z" fill="#E0E0E0"/>
<path d="M454.416 121.528C469.657 119.054 480.008 104.694 477.534 89.4522C475.061 74.2108 460.7 63.8604 445.458 66.334C430.217 68.8076 419.867 83.1684 422.34 98.4098C424.814 113.651 439.175 124.002 454.416 121.528Z" fill="#F0F0F0"/>
<path d="M451.25 74.7591V94.3031L464.202 86.9741" fill="#F0F0F0"/>
<path d="M451.25 74.7591V94.3031L464.202 86.9741" stroke="#E0E0E0" stroke-width="2" stroke-miterlimit="10" stroke-linecap="round" stroke-linejoin="round"/>
<path d="M135.316 414.843C132.804 410.705 128.666 414.304 128.666 414.304C129.256 406.375 121.962 400.951 121.962 400.951C121.962 400.951 130.439 400.951 131.621 392.863C132.804 384.774 128.666 388.537 124.784 388.482C120.901 388.426 116.843 399.769 121.962 406.149C127.081 412.527 125.71 423.416 113.886 433.887C111.002 436.442 109.041 439.842 107.716 443.522C108.608 433.901 109.112 420.346 106.281 411.296C101.472 395.926 110.635 391.788 113.296 384.103C115.957 376.418 106.281 369.915 106.281 369.915C106.281 369.915 115.365 365.778 110.931 361.048C106.497 356.318 97.334 356.962 97.334 363.143C97.334 369.324 103.541 371.688 103.541 371.688C103.541 371.688 110.634 379.077 110.634 382.921C110.634 386.764 103.541 395.039 103.541 395.039C103.541 395.039 106.792 387.956 100.289 387.656C93.7868 387.354 91.7179 395.926 94.3773 399.769C97.0367 403.612 101.47 400.359 101.47 400.359C101.47 400.359 101.987 408.635 103.502 413.661C104.167 415.87 103.855 424.54 103.295 433.561C101.985 430.304 100.133 427.32 97.5378 425.02C85.7151 414.547 84.3428 403.66 89.462 397.281C94.5811 390.903 90.5229 379.56 86.6406 379.616C82.7584 379.671 78.6206 375.909 79.803 383.997C80.9855 392.085 89.462 392.085 89.462 392.085C89.462 392.085 82.1679 397.509 82.7584 405.438C82.7584 405.438 78.6206 401.839 76.1078 405.978C71.6225 413.366 82.0185 417.949 83.7663 414.312C83.7663 414.312 105.813 429.92 100.493 452.383L101.729 454.207C101.569 456.021 101.47 457.112 101.47 457.112L103.194 456.37L105.156 459.266C105.054 464.881 105.658 469.031 105.658 469.031L110.93 461.25C105.609 438.787 127.655 423.18 127.655 423.18C129.406 426.812 139.802 422.231 135.316 414.843Z" fill="#E0E0E0"/>
<path opacity="0.2" d="M135.316 414.843C132.804 410.705 128.666 414.304 128.666 414.304C129.256 406.375 121.962 400.951 121.962 400.951C121.962 400.951 130.439 400.951 131.621 392.863C132.804 384.774 128.666 388.537 124.784 388.482C120.901 388.426 116.843 399.769 121.962 406.149C127.081 412.527 125.71 423.416 113.886 433.887C111.002 436.442 109.041 439.842 107.716 443.522C108.608 433.901 109.112 420.346 106.281 411.296C101.472 395.926 110.635 391.788 113.296 384.103C115.957 376.418 106.281 369.915 106.281 369.915C106.281 369.915 115.365 365.778 110.931 361.048C106.497 356.318 97.334 356.962 97.334 363.143C97.334 369.324 103.541 371.688 103.541 371.688C103.541 371.688 110.634 379.077 110.634 382.921C110.634 386.764 103.541 395.039 103.541 395.039C103.541 395.039 106.792 387.956 100.289 387.656C93.7868 387.354 91.7179 395.926 94.3773 399.769C97.0367 403.612 101.47 400.359 101.47 400.359C101.47 400.359 101.987 408.635 103.502 413.661C104.167 415.87 103.855 424.54 103.295 433.561C101.985 430.304 100.133 427.32 97.5378 425.02C85.7151 414.547 84.3428 403.66 89.462 397.281C94.5811 390.903 90.5229 379.56 86.6406 379.616C82.7584 379.671 78.6206 375.909 79.803 383.997C80.9855 392.085 89.462 392.085 89.462 392.085C89.462 392.085 82.1679 397.509 82.7584 405.438C82.7584 405.438 78.6206 401.839 76.1078 405.978C71.6225 413.366 82.0185 417.949 83.7663 414.312C83.7663 414.312 105.813 429.92 100.493 452.383L101.729 454.207C101.569 456.021 101.47 457.112 101.47 457.112L103.194 456.37L105.156 459.266C105.054 464.881 105.658 469.031 105.658 469.031L110.93 461.25C105.609 438.787 127.655 423.18 127.655 423.18C129.406 426.812 139.802 422.231 135.316 414.843Z" fill="#E0E0E0"/>
<path d="M131.004 510.664H80.5038L75.0566 455.374H136.453L131.004 510.664Z" fill="#E6E6E6"/>
<path d="M139.148 449.274H72.3594V461.475H139.148V449.274Z" fill="#F0F0F0"/>
<path d="M430.857 106.231C442.012 102.326 453.896 100.589 465.314 101.312C523.335 104.987 559.846 155.828 570.524 209.005C586.007 286.12 546.754 365.02 491.659 417.149C489.867 418.845 488.051 420.515 486.207 422.155C428.866 473.189 352.097 499.305 275.959 501.476C228.079 502.841 171.286 486.67 139.669 448.665C106.633 408.952 113.959 319.204 176.879 315.012C202.5 313.305 226.41 322.612 251.08 327.723C285.304 334.813 322.553 327.938 350.624 306.658C406.408 264.368 356.189 187.069 390.359 136.316C399.812 122.269 414.555 111.936 430.857 106.231Z" fill="#407BFF"/>
<path opacity="0.9" d="M430.857 106.231C442.012 102.326 453.896 100.589 465.314 101.312C523.335 104.987 559.846 155.828 570.524 209.005C586.007 286.12 546.754 365.02 491.659 417.149C489.867 418.845 488.051 420.515 486.207 422.155C428.866 473.189 352.097 499.305 275.959 501.476C228.079 502.841 171.286 486.67 139.669 448.665C106.633 408.952 113.959 319.204 176.879 315.012C202.5 313.305 226.41 322.612 251.08 327.723C285.304 334.813 322.553 327.938 350.624 306.658C406.408 264.368 356.189 187.069 390.359 136.316C399.812 122.269 414.555 111.936 430.857 106.231Z" fill="white"/>
<path d="M348.999 573.875C498.486 573.875 619.668 566.798 619.668 558.068C619.668 549.338 498.486 542.261 348.999 542.261C199.513 542.261 78.3301 549.338 78.3301 558.068C78.3301 566.798 199.513 573.875 348.999 573.875Z" fill="#F5F5F5"/>
<path d="M572.983 514.065C573.195 512.635 578.081 478.925 568.294 467.286C566.127 464.711 563.394 463.364 560.168 463.284C540.41 462.822 537.707 478.69 537.684 478.852L540.013 479.211C540.104 478.643 542.447 465.213 560.11 465.641C562.666 465.702 564.753 466.738 566.49 468.802C575.602 479.637 570.703 513.377 570.652 513.716L572.983 514.065Z" fill="#DE713D"/>
<path d="M574.179 512.528L576.535 512.454C576.526 512.144 575.752 481.393 590.904 475.04C605.754 468.819 612.434 481.609 612.71 482.158L614.817 481.098C614.74 480.945 606.901 465.776 589.993 472.866C573.348 479.845 574.137 511.198 574.179 512.528Z" fill="#DE713D"/>
<path d="M574.11 514.944C574.111 514.454 574.252 465.819 583.734 451.594C592.839 437.937 607.526 444.367 608.146 444.649L609.12 442.502C608.95 442.425 592.001 434.942 581.772 450.286C571.896 465.102 571.753 512.913 571.752 514.942L574.11 514.944Z" fill="#DE713D"/>
<path d="M557.341 464.453C557.341 464.453 565.967 467.633 563.403 475.14C560.838 482.648 533.559 495.005 533.559 495.005C533.559 495.005 522.134 484.534 532.627 467.504C543.119 450.474 557.108 459.079 557.341 464.453Z" fill="#DE713D"/>
<path d="M584.164 449.034C584.164 449.034 578.039 448.376 578.532 444.646C579.025 440.916 602.34 431.314 616.096 446.841C616.096 446.841 607.288 461.97 594.555 462.169C581.822 462.364 584.164 449.034 584.164 449.034Z" fill="#DE713D"/>
<path d="M590.448 473.954C590.448 473.954 586.221 470.54 590.783 468.875C595.346 467.21 617.728 467.683 617.961 489.854C617.961 489.854 591.893 494.186 588.666 485.742C585.438 477.297 590.448 473.954 590.448 473.954Z" fill="#DE713D"/>
<path opacity="0.2" d="M557.341 464.453C557.341 464.453 565.967 467.633 563.403 475.14C560.838 482.648 533.559 495.005 533.559 495.005C533.559 495.005 522.134 484.534 532.627 467.504C543.119 450.474 557.108 459.079 557.341 464.453Z" fill="black"/>
<path opacity="0.2" d="M584.164 449.034C584.164 449.034 578.039 448.376 578.532 444.646C579.025 440.916 602.34 431.314 616.096 446.841C616.096 446.841 607.288 461.97 594.555 462.169C581.822 462.364 584.164 449.034 584.164 449.034Z" fill="black"/>
<path opacity="0.2" d="M590.448 473.954C590.448 473.954 586.221 470.54 590.783 468.875C595.346 467.21 617.728 467.683 617.961 489.854C617.961 489.854 591.893 494.186 588.666 485.742C585.438 477.297 590.448 473.954 590.448 473.954Z" fill="black"/>
<path d="M552.706 559.233H593.159L597.523 514.943H548.342L552.706 559.233Z" fill="#DE713D"/>
<path opacity="0.5" d="M552.706 559.233H593.159L597.523 514.943H548.342L552.706 559.233Z" fill="white"/>
<path d="M546.181 519.829H599.682V510.056H546.181V519.829Z" fill="#DE713D"/>
<path opacity="0.2" d="M546.181 519.829H599.682V510.056H546.181V519.829Z" fill="white"/>
<path d="M506.921 527.485L466.698 523.531V467.004H450.757V523.516L410.372 527.485C406.362 527.878 403.307 531.25 403.307 535.279V541.319H457.168H460.122H513.984V535.279C513.986 531.25 510.928 527.878 506.921 527.485Z" fill="#263238"/>
<path opacity="0.2" d="M506.921 527.485L466.698 523.531V467.004H450.757V523.516L410.372 527.485C406.362 527.878 403.307 531.25 403.307 535.279V541.319H457.168H460.122H513.984V535.279C513.986 531.25 510.928 527.878 506.921 527.485Z" fill="white"/>
<path d="M407.563 559.232C413.319 559.232 417.986 554.566 417.986 548.81C417.986 543.054 413.319 538.387 407.563 538.387C401.807 538.387 397.141 543.054 397.141 548.81C397.141 554.566 401.807 559.232 407.563 559.232Z" fill="#263238"/>
<path d="M509.727 559.232C515.483 559.232 520.15 554.566 520.15 548.81C520.15 543.054 515.483 538.387 509.727 538.387C503.971 538.387 499.305 543.054 499.305 548.81C499.305 554.566 503.971 559.232 509.727 559.232Z" fill="#263238"/>
<path d="M463.673 479.154H453.781C450.594 479.154 448.012 476.571 448.012 473.384V428.806H469.443V473.384C469.443 476.571 466.861 479.154 463.673 479.154Z" fill="#263238"/>
<path opacity="0.3" d="M463.673 479.154H453.781C450.594 479.154 448.012 476.571 448.012 473.384V428.806H469.443V473.384C469.443 476.571 466.861 479.154 463.673 479.154Z" fill="white"/>
<path d="M496.837 340.449C496.837 340.449 499.875 415.828 478.889 428.806H502.848C502.848 428.806 521.412 403.125 516.166 340.449H496.837Z" fill="#263238"/>
<path opacity="0.3" d="M496.837 340.449C496.837 340.449 499.875 415.828 478.889 428.806H502.848C502.848 428.806 521.412 403.125 516.166 340.449H496.837Z" fill="white"/>
<path d="M410.607 418.264H504.029C507.884 418.264 511.009 421.39 511.009 425.244V434.582H403.627V425.244C403.627 421.389 406.753 418.264 410.607 418.264Z" fill="#263238"/>
<path d="M401.96 426.424H512.678C514.229 426.424 515.485 427.68 515.485 429.231V431.775C515.485 433.326 514.229 434.582 512.678 434.582H401.96C400.409 434.582 399.152 433.326 399.152 431.775V429.231C399.152 427.68 400.409 426.424 401.96 426.424Z" fill="#263238"/>
<path opacity="0.6" d="M401.96 426.424H512.678C514.229 426.424 515.485 427.68 515.485 429.231V431.775C515.485 433.326 514.229 434.582 512.678 434.582H401.96C400.409 434.582 399.152 433.326 399.152 431.775V429.231C399.152 427.68 400.409 426.424 401.96 426.424Z" fill="white"/>
<path d="M522.04 355.764H483.658C472.413 355.764 463.299 346.65 463.299 335.405V320.395C463.299 309.15 472.413 300.036 483.658 300.036H522.041C533.286 300.036 542.4 309.15 542.4 320.395V335.405C542.4 346.65 533.285 355.764 522.04 355.764Z" fill="#263238"/>
<path d="M367.219 238.442L359.56 218.241C359.56 218.241 362.845 215.201 360.592 212.117C358.339 209.033 344.203 200.354 341.626 201.88C339.049 203.405 333.328 209.158 336.422 212.349C339.514 215.54 353.209 220.867 353.209 220.867L359.983 247.37L367.219 238.442Z" fill="#E4897B"/>
<path d="M420.732 276.848C420.732 276.848 385.873 269.683 382.093 267.972C378.314 266.262 364.28 225.166 364.28 225.166L353.525 230.191C353.525 230.191 362.183 271.43 371.035 281.237C379.889 291.044 417.649 299.338 417.649 299.338L420.732 276.848Z" fill="#DE713D"/>
<path opacity="0.2" d="M417.643 299.332C417.643 299.332 417.426 299.286 417.004 299.184C415.097 298.756 409.145 297.351 402.061 295.281C390.565 291.943 376.089 286.839 371.028 281.243C362.189 271.43 353.52 230.188 353.52 230.188L364.272 225.168C364.272 225.168 378.304 266.265 382.097 267.974C385.876 269.678 420.731 276.845 420.731 276.845L417.643 299.332Z" fill="black"/>
<path d="M364.45 224.359L366.672 228.643L352.852 233.402L353.385 228.166L364.45 224.359Z" fill="#DE713D"/>
<path opacity="0.2" d="M417.91 298.77C415.975 298.49 409.932 297.551 402.709 296.036C406.827 288.926 418.887 285.27 418.887 285.27L417.91 298.77Z" fill="black"/>
<path d="M469.87 248.401C469.87 248.401 471.921 267.707 464.766 272.448C457.612 277.189 422.431 271.636 418.438 263.87C414.447 256.104 429.465 235.012 429.465 235.012L469.87 248.401Z" fill="#263238"/>
<path d="M327.492 502.447L336.672 504.659L341.318 491.986L345.537 480.459L335.081 475.999L331.06 489.988L327.492 502.447Z" fill="#E4897B"/>
<path opacity="0.2" d="M331.061 489.988L341.318 491.986L345.537 480.459L335.081 475.999L331.061 489.988Z" fill="black"/>
<path d="M331.982 483.299L344.714 488.031C344.714 488.031 378.679 403.112 385.659 402.819C392.639 402.526 463.709 435.192 481.522 417.072C499.335 398.966 473.579 355.313 473.579 355.313C473.579 355.313 430.735 349.199 427.511 358.873C426.882 360.744 426.198 364.415 425.696 367.556C425.207 370.516 424.872 373.001 424.872 373.001C424.872 373.001 424.858 373.001 424.844 372.987C423.518 372.652 380.507 361.553 363.56 373.001C346.347 384.643 331.982 483.299 331.982 483.299Z" fill="#407BFF"/>
<path opacity="0.6" d="M331.982 483.299L344.714 488.031C344.714 488.031 378.679 403.112 385.659 402.819C392.639 402.526 463.709 435.192 481.522 417.072C499.335 398.966 473.579 355.313 473.579 355.313C473.579 355.313 430.735 349.199 427.511 358.873C426.882 360.744 426.198 364.415 425.696 367.556C425.207 370.516 424.872 373.001 424.872 373.001C424.872 373.001 424.858 373.001 424.844 372.987C423.518 372.652 380.507 361.553 363.56 373.001C346.347 384.643 331.982 483.299 331.982 483.299Z" fill="white"/>
<path d="M405.213 538.672L414.36 536.328L412.599 523.207L410.966 511.171L399.654 512.186L402.591 526.21L405.213 538.672Z" fill="#E4897B"/>
<path opacity="0.2" d="M402.663 526.492L412.663 523.457L410.997 511.297L399.67 512.249L402.663 526.492Z" fill="black"/>
<path d="M349.971 483.321L331.428 477.018L330.635 484.615L344.701 489.587L349.971 483.321Z" fill="#407BFF"/>
<path d="M450.754 421.429C450.754 421.429 447.853 421.498 402.914 419.404C402.914 419.404 409.63 475.586 413.293 517.644L399.856 519.935C399.856 519.935 367.748 429.875 368.097 415.566C368.446 401.257 384.849 397.069 384.849 397.069C384.849 397.069 416.864 415.565 450.754 421.429Z" fill="#407BFF"/>
<path opacity="0.6" d="M450.754 421.429C450.754 421.429 447.853 421.498 402.914 419.404C402.914 419.404 409.63 475.586 413.293 517.644L399.856 519.935C399.856 519.935 367.748 429.875 368.097 415.566C368.446 401.257 384.849 397.069 384.849 397.069C384.849 397.069 416.864 415.565 450.754 421.429Z" fill="white"/>
<path opacity="0.1" d="M450.754 421.429C450.754 421.429 447.853 421.498 402.914 419.404C402.914 419.404 409.63 475.586 413.293 517.644L399.856 519.935C399.856 519.935 367.748 429.875 368.097 415.566C368.446 401.257 384.849 397.069 384.849 397.069C384.849 397.069 416.864 415.565 450.754 421.429Z" fill="black"/>
<path d="M415.26 513.568L396.791 515.669L400.354 522.909L415.305 520.992L415.26 513.568Z" fill="#407BFF"/>
<path opacity="0.1" d="M424.873 373.001L449.931 378.222C449.931 378.222 436.083 370.572 425.697 367.556C425.208 370.516 424.873 373.001 424.873 373.001Z" fill="black"/>
<path d="M472.544 348.653L473.574 355.317L427.508 358.87L426.289 350.988L472.544 348.653Z" fill="#263238"/>
<path opacity="0.2" d="M472.544 348.653L473.574 355.317L427.508 358.87L426.289 350.988L472.544 348.653Z" fill="black"/>
<path d="M457.986 359.808L460.262 359.574L459.07 347.981L456.793 348.215L457.986 359.808Z" fill="#407BFF"/>
<path d="M437.587 358.64L447.68 357.992L447.188 350.338L437.095 350.987L437.587 358.64Z" fill="white"/>
<path d="M429.769 361.059L432.045 360.825L430.853 349.233L428.577 349.467L429.769 361.059Z" fill="#407BFF"/>
<path opacity="0.6" d="M457.986 359.808L460.262 359.574L459.07 347.981L456.793 348.215L457.986 359.808Z" fill="white"/>
<path opacity="0.6" d="M429.769 361.059L432.045 360.825L430.853 349.233L428.577 349.467L429.769 361.059Z" fill="white"/>
<path d="M419.895 276.212C419.895 276.212 431.656 279.901 446.437 279.142C461.218 278.382 478.89 285.562 478.89 285.562L472.545 348.653L426.29 350.988C426.29 350.988 410.748 298.303 419.895 276.212Z" fill="#DE713D"/>
<path d="M427.326 240.584C427.326 240.584 429.927 209.945 455.537 221.078C487.682 235.052 462.12 272.37 446.416 264.709C430.713 257.047 427.326 240.584 427.326 240.584Z" fill="#263238"/>
<path opacity="0.2" d="M434.506 280.853L435.242 298.165L440.986 290.021C440.986 290.021 438.937 309.168 440.136 319.594C440.136 319.594 441.233 300.899 443.835 290.021L449.932 298.165L458.692 280.959C458.692 280.959 444.518 275.868 434.506 280.853Z" fill="black"/>
<path d="M442.436 284.074L455.679 280.333C447.519 274.717 451.633 262.16 451.633 262.16L438.515 266.772C439.216 268.948 439.657 270.798 439.922 272.377C441.293 280.56 437.598 281.214 437.598 281.214L442.436 284.074Z" fill="#E4897B"/>
<path opacity="0.2" d="M438.518 266.772C439.218 268.948 439.66 270.798 439.925 272.377C446.204 269.86 451.636 262.16 451.636 262.16L438.518 266.772Z" fill="black"/>
<path d="M447.078 227.511C435.459 224.939 430.343 230.332 426.841 242.117C422.466 256.845 423.431 268.21 438.666 268.229C459.357 268.254 466.373 231.781 447.078 227.511Z" fill="#E4897B"/>
<path d="M434.496 243.131C434.496 243.131 432.215 245.81 430.049 247.201C430.049 247.201 430.694 249.002 432.821 249.194L434.496 243.131Z" fill="#DE5753"/>
<path d="M441.818 243.755C441.585 244.704 441.909 245.6 442.541 245.755C443.173 245.91 443.877 245.268 444.11 244.319C444.343 243.369 444.019 242.473 443.387 242.317C442.755 242.16 442.052 242.804 441.818 243.755Z" fill="#263238"/>
<path d="M443.64 242.427L441.773 241.109C441.773 241.109 442.375 243.1 443.64 242.427Z" fill="#263238"/>
<path d="M430.064 240.653C429.831 241.602 430.155 242.498 430.787 242.655C431.421 242.811 432.123 242.167 432.356 241.218C432.589 240.269 432.265 239.373 431.633 239.218C430.999 239.06 430.297 239.704 430.064 240.653Z" fill="#263238"/>
<path d="M431.885 239.327L430.02 238.009C430.02 238.009 430.62 239.999 431.885 239.327Z" fill="#263238"/>
<path d="M443.711 235.757C443.711 235.757 447.07 236.056 448.361 238.629" stroke="#263238" stroke-width="0.7247" stroke-miterlimit="10" stroke-linecap="round" stroke-linejoin="round"/>
<path d="M435.375 233.396C435.375 233.396 433.49 232.182 430.533 233.327" stroke="#263238" stroke-width="0.7247" stroke-miterlimit="10" stroke-linecap="round" stroke-linejoin="round"/>
<path d="M455.443 249.904C455.443 249.904 452.123 239.156 454.577 231.968C454.577 231.968 433.635 217.467 427.326 240.586C427.326 240.586 429.669 219.336 449.745 223.293C469.788 227.246 463.268 256.453 451.026 262.876C451.026 262.876 457.483 256.617 455.443 249.904Z" fill="#263238"/>
<path d="M453.003 251.937C453.494 250.083 456.126 247.344 459.521 248.494C463.035 249.683 463.114 257.455 453.765 257.25C452.424 257.22 451.977 255.804 453.003 251.937Z" fill="#E4897B"/>
<path d="M430.742 253.608C431.154 255.145 431.344 257.925 431.344 257.925C431.599 257.953 431.855 257.981 432.11 257.997C435.579 258.291 437.285 257.282 438.126 256.074C438.582 255.411 438.773 254.68 438.849 254.075C438.944 253.379 438.852 252.859 438.852 252.859C436.92 253.802 433.664 253.777 431.926 253.689C431.199 253.661 430.742 253.608 430.742 253.608Z" fill="#263238"/>
<path d="M431.926 253.689L432.137 254.958C435.405 255.227 437.741 254.979 438.849 254.075C438.943 253.379 438.851 252.859 438.851 252.859C436.919 253.802 433.664 253.775 431.926 253.689Z" fill="white"/>
<path d="M432.109 257.995C435.578 258.29 437.284 257.281 438.125 256.073C436.94 256.019 435.503 256.084 434.208 256.509C433.216 256.831 432.563 257.401 432.109 257.995Z" fill="#DE5753"/>
<path d="M447.124 228.441C447.124 228.441 447.573 248.595 459.666 251.014C471.758 253.433 458.539 225.115 458.539 225.115C458.539 225.115 440.535 213.355 428.533 221.643C416.532 229.931 427.326 240.586 427.326 240.586C427.326 240.586 429.861 225.615 447.124 228.441Z" fill="#263238"/>
<path d="M447.54 227.109C447.54 227.109 443.231 239.849 451.741 246.537" stroke="#263238" stroke-width="0.5" stroke-miterlimit="10" stroke-linecap="round" stroke-linejoin="round"/>
<path d="M463.195 255.16C461.657 259.259 457.707 261.565 454.372 260.314C451.039 259.062 449.583 254.726 451.121 250.629C452.659 246.53 456.609 244.224 459.944 245.475C463.277 246.725 464.733 251.061 463.195 255.16Z" fill="#407BFF"/>
<path opacity="0.4" d="M463.195 255.16C461.657 259.259 457.707 261.565 454.372 260.314C451.039 259.062 449.583 254.726 451.121 250.629C452.659 246.53 456.609 244.224 459.944 245.475C463.277 246.725 464.733 251.061 463.195 255.16Z" fill="black"/>
<path d="M459.344 248.44C459.344 248.44 464.35 226.006 453.115 220.126C453.115 220.126 455.456 220.441 456.908 220.864C458.36 221.287 467.335 230.385 462.799 250.548L459.344 248.44Z" fill="#407BFF"/>
<path opacity="0.2" d="M459.344 248.44C459.344 248.44 464.35 226.006 453.115 220.126C453.115 220.126 455.456 220.441 456.908 220.864C458.36 221.287 467.335 230.385 462.799 250.548L459.344 248.44Z" fill="black"/>
<path d="M438.273 261.279C437.995 261.242 437.716 261.2 437.434 261.153L437.66 259.777C447.777 261.424 455.304 256.07 455.379 256.014L456.204 257.141C455.89 257.371 448.57 262.633 438.273 261.279Z" fill="#407BFF"/>
<g opacity="0.2">
<path d="M438.273 261.279C437.995 261.242 437.716 261.2 437.434 261.153L437.66 259.777C447.777 261.424 455.304 256.07 455.379 256.014L456.204 257.141C455.89 257.371 448.57 262.633 438.273 261.279Z" fill="black"/>
</g>
<path d="M462.723 254.599C461.706 257.308 459.095 258.833 456.891 258.006C454.687 257.179 453.725 254.313 454.741 251.603C455.759 248.893 458.369 247.369 460.573 248.195C462.778 249.023 463.74 251.889 462.723 254.599Z" fill="#407BFF"/>
<path d="M437.024 261.737L435.903 261.589C435.071 261.48 434.486 260.716 434.595 259.884C434.704 259.052 435.468 258.467 436.298 258.576L437.419 258.724C438.251 258.833 438.836 259.597 438.727 260.429C438.62 261.261 437.856 261.845 437.024 261.737Z" fill="#407BFF"/>
<path opacity="0.4" d="M437.024 261.737L435.903 261.589C435.071 261.48 434.486 260.716 434.595 259.884C434.704 259.052 435.468 258.467 436.298 258.576L437.419 258.724C438.251 258.833 438.836 259.597 438.727 260.429C438.62 261.261 437.856 261.845 437.024 261.737Z" fill="black"/>
<path d="M452.129 275.532L443.834 283.679L447.151 293.662L458.69 280.959L452.129 275.532Z" fill="#407BFF"/>
<path d="M440.136 277.235L441.477 283.506L437.182 292.373L434.506 280.853L440.136 277.235Z" fill="#407BFF"/>
<path d="M450.354 282.604L455.171 264.972C455.171 264.972 452.837 260.581 453.341 259.661C453.845 258.742 456.352 246.904 458.14 245.614C459.927 244.326 467.276 246.526 468.02 247.726C468.764 248.927 460.977 264.971 460.977 264.971L458.139 284.073L450.354 282.604Z" fill="#E4897B"/>
<path d="M478.89 285.562C492.145 299.13 465.578 329.867 450.354 328.557C435.131 327.248 450.734 271.513 450.734 271.513L460.482 273.117C460.482 273.117 457.062 297.237 458.14 299.13C459.22 301.021 474.435 281.001 478.89 285.562Z" fill="#DE713D"/>
<path opacity="0.2" d="M478.89 285.562C492.145 299.13 465.578 329.867 450.354 328.557C435.131 327.248 450.734 271.513 450.734 271.513L460.482 273.117C460.482 273.117 457.062 297.237 458.14 299.13C459.22 301.021 474.435 281.001 478.89 285.562Z" fill="black"/>
<path d="M449.934 269.73L448.49 274.333L462.073 275.532V271.513L449.934 269.73Z" fill="#DE713D"/>
<path opacity="0.6" d="M429.351 318.774H423.848C423.238 318.774 422.744 318.28 422.744 317.67V307.285C422.744 306.675 423.238 306.181 423.848 306.181H429.351C429.961 306.181 430.456 306.675 430.456 307.285V317.67C430.456 318.28 429.961 318.774 429.351 318.774Z" fill="white"/>
<path opacity="0.2" d="M429.463 307.009H423.203V315.569H429.463V307.009Z" fill="black"/>
<path d="M427.162 303.142H425.781V308.187H427.162V303.142Z" fill="#263238"/>
<path d="M312.292 520.279C313.688 519.636 315.189 519.255 316.723 519.153C316.723 519.153 322.025 516.032 327.28 503.909L333.189 503.874C335.234 503.898 337.049 505.196 337.729 507.125C337.826 507.388 337.882 507.664 337.896 507.943C337.836 509.372 337.685 510.794 337.442 512.203C336.911 516.622 333.987 526.105 333.987 526.105L332.986 525.85L334.807 517.033C335.413 514.037 332.265 516.931 330.805 519.952C329.344 522.973 327.105 526.013 320.579 524.521C312.973 522.741 309.908 521.647 312.292 520.279Z" fill="#407BFF"/>
<path d="M328.35 500.732C328.35 500.732 320.972 516.173 316.723 519.152C316.723 519.152 322.418 522.548 328.35 514.989C336.02 505.213 337.896 507.944 337.896 507.944C337.896 507.944 337.571 504.599 336.972 502.961C335.821 499.806 328.35 500.732 328.35 500.732Z" fill="#E4897B"/>
<path d="M393.569 557.067C394.773 556.112 396.141 555.385 397.606 554.923C397.606 554.923 402.016 550.633 404.247 537.61L409.979 536.175C411.973 535.713 414.042 536.545 415.16 538.258C415.316 538.489 415.436 538.745 415.516 539.013C415.796 540.414 415.986 541.831 416.084 543.258C416.616 547.678 416.025 557.584 416.025 557.584L414.992 557.574L414.67 548.577C414.547 545.522 412.175 549.081 411.473 552.361C410.771 555.642 409.316 559.128 402.622 559.226C394.816 559.298 391.579 558.96 393.569 557.067Z" fill="#407BFF"/>
<path d="M404.532 534.269C404.532 534.269 401.026 551.02 397.605 554.922C397.605 554.922 403.945 556.87 407.914 548.12C413.045 536.804 415.516 539.011 415.516 539.011C415.516 539.011 414.408 535.838 413.438 534.389C411.57 531.599 404.532 534.269 404.532 534.269Z" fill="#E4897B"/>
<path d="M534.333 231.378H485.59C481.686 231.378 478.52 228.212 478.52 224.307V203.449C478.52 199.545 481.686 196.379 485.59 196.379H534.333C538.238 196.379 541.404 199.545 541.404 203.449V224.307C541.404 228.212 538.238 231.378 534.333 231.378Z" fill="#DE713D"/>
<path d="M495.372 227.388L480.688 247.348L504.379 228.727L495.372 227.388Z" fill="#DE713D"/>
<path d="M495.921 213.877C495.921 215.015 495 215.937 493.862 215.937C492.724 215.937 491.803 215.014 491.803 213.877C491.803 212.74 492.724 211.818 493.862 211.818C494.998 211.818 495.921 212.74 495.921 213.877Z" fill="white"/>
<path d="M506.655 213.877C506.655 215.015 505.733 215.937 504.596 215.937C503.46 215.937 502.537 215.014 502.537 213.877C502.537 212.74 503.46 211.818 504.596 211.818C505.733 211.818 506.655 212.74 506.655 213.877Z" fill="white"/>
<path d="M517.388 213.877C517.388 215.015 516.466 215.937 515.329 215.937C514.191 215.937 513.27 215.014 513.27 213.877C513.27 212.74 514.192 211.818 515.329 211.818C516.466 211.818 517.388 212.74 517.388 213.877Z" fill="white"/>
<path d="M528.122 213.877C528.122 215.015 527.199 215.937 526.063 215.937C524.925 215.937 524.004 215.014 524.004 213.877C524.004 212.74 524.925 211.818 526.063 211.818C527.201 211.818 528.122 212.74 528.122 213.877Z" fill="white"/>
<path d="M303.912 184.695L338.672 203.417L303.912 184.695ZM303.912 184.695C303.215 184.319 302.954 183.451 303.33 182.753L302.89 182.516M303.912 184.695L302.89 182.516M302.89 182.516L303.33 182.753L314.416 162.17M302.89 182.516L314.416 162.17M314.416 162.17C314.416 162.17 314.416 162.17 314.416 162.17M314.416 162.17L314.416 162.17M314.416 162.17C314.792 161.473 315.66 161.212 316.358 161.587C316.358 161.587 316.358 161.587 316.358 161.587L351.118 180.308L314.416 162.17ZM351.7 182.25C352.075 181.553 351.814 180.684 351.118 180.308L351.7 182.25ZM351.7 182.25L340.615 202.833L351.7 182.25ZM340.615 202.834C340.238 203.531 339.368 203.791 338.672 203.417L340.615 202.834Z" fill="#407BFF" stroke="#DE713D"/>
<path opacity="0.7" d="M303.912 184.695L338.672 203.417L303.912 184.695ZM303.912 184.695C303.215 184.319 302.954 183.451 303.33 182.753L302.89 182.516M303.912 184.695L302.89 182.516M302.89 182.516L303.33 182.753L314.416 162.17M302.89 182.516L314.416 162.17M314.416 162.17C314.416 162.17 314.416 162.17 314.416 162.17M314.416 162.17L314.416 162.17M314.416 162.17C314.792 161.473 315.66 161.212 316.358 161.587C316.358 161.587 316.358 161.587 316.358 161.587L351.118 180.308L314.416 162.17ZM351.7 182.25C352.075 181.553 351.814 180.684 351.118 180.308L351.7 182.25ZM351.7 182.25L340.615 202.833L351.7 182.25ZM340.615 202.834C340.238 203.531 339.368 203.791 338.672 203.417L340.615 202.834Z" fill="white" stroke="#DE713D"/>
<path opacity="0.2" d="M328.33 186.759L330.076 186.587L327.802 186.922L327.801 186.922C325.954 187.194 324.148 186.22 323.358 184.529L321.174 179.849L323.493 184.178L323.493 184.178C324.435 185.937 326.343 186.957 328.33 186.759Z" fill="black" stroke="#DE713D"/>
<path d="M300.054 132.062L300.054 132.062C296.679 134.37 293.539 139.365 291.189 144.829C288.845 150.278 287.338 156.071 287.157 159.875C286.974 163.704 288.557 166.049 290.351 166.532C292.098 167.002 294.552 165.815 296.366 161.465C296.857 160.286 297.816 158.932 299.075 157.476C300.341 156.013 301.935 154.418 303.727 152.756C307.31 149.433 311.711 145.816 315.91 142.422C316.741 141.751 317.564 141.088 318.37 140.439C321.649 137.798 324.667 135.367 326.915 133.4C328.318 132.172 329.398 131.144 330.051 130.37C330.382 129.978 330.574 129.685 330.654 129.488C330.668 129.453 330.677 129.426 330.683 129.406C330.239 129.067 329.611 128.961 328.826 129.06C328.008 129.163 327.1 129.48 326.235 129.873C325.374 130.264 324.583 130.719 324.004 131.077C323.716 131.256 323.482 131.41 323.32 131.518C323.24 131.573 323.178 131.616 323.136 131.645L323.089 131.678L323.078 131.686L323.075 131.687L323.075 131.688L323.075 131.688L323.075 131.688C323.075 131.688 323.075 131.688 323.074 131.687L322.404 130.957C322.403 130.956 322.403 130.956 322.403 130.956L322.403 130.956L322.403 130.956L322.404 130.955L322.41 130.948L322.434 130.92C322.456 130.894 322.487 130.855 322.527 130.805C322.607 130.704 322.718 130.56 322.841 130.386C323.091 130.033 323.378 129.578 323.565 129.132C323.762 128.66 323.795 128.321 323.717 128.126C323.666 128 323.496 127.769 322.755 127.727L300.054 132.062ZM300.054 132.062C300.918 131.47 301.592 131.063 302.109 130.799C302.638 130.53 302.963 130.432 303.143 130.415C303.145 130.415 303.147 130.415 303.149 130.414C303.146 130.464 303.135 130.54 303.107 130.648C302.988 131.104 302.665 131.73 302.343 132.275C302.187 132.541 302.039 132.774 301.929 132.941C301.875 133.025 301.83 133.092 301.8 133.137L301.765 133.189L301.756 133.201L301.754 133.204L301.753 133.205M300.054 132.062L301.753 133.205M301.753 133.205L301.753 133.205L301.754 133.206M301.753 133.205L301.754 133.206M301.754 133.206L302.512 133.849L302.513 133.849L302.513 133.849L302.513 133.849L302.513 133.848L302.517 133.845L302.53 133.832L302.585 133.78C302.633 133.734 302.704 133.666 302.797 133.579C302.983 133.406 303.252 133.158 303.586 132.86C304.256 132.265 305.183 131.474 306.217 130.69C307.252 129.905 308.384 129.136 309.462 128.576C310.556 128.008 311.527 127.692 312.263 127.731C313.053 127.773 313.244 128.017 313.302 128.159C313.386 128.368 313.35 128.728 313.141 129.224C312.943 129.692 312.639 130.17 312.374 130.54C312.244 130.722 312.127 130.874 312.042 130.979C312 131.032 311.966 131.073 311.944 131.1L311.918 131.131L311.912 131.138L311.911 131.139L311.911 131.139L311.911 131.139C311.911 131.139 311.911 131.139 311.912 131.14L312.552 131.892L312.552 131.892L312.552 131.892L312.553 131.891L312.556 131.889L312.571 131.88L312.63 131.844C312.682 131.812 312.76 131.766 312.86 131.706C313.06 131.587 313.351 131.416 313.71 131.212C314.429 130.804 315.42 130.261 316.513 129.726C317.608 129.189 318.795 128.663 319.907 128.284C321.031 127.901 322.026 127.686 322.755 127.727L301.754 133.206ZM330.691 129.357C330.692 129.357 330.692 129.361 330.691 129.37C330.69 129.362 330.691 129.358 330.691 129.357Z" fill="#DE713D" stroke="#DE713D"/>
<path opacity="0.4" d="M300.054 132.062L300.054 132.062C296.679 134.37 293.539 139.365 291.189 144.829C288.845 150.278 287.338 156.071 287.157 159.875C286.974 163.704 288.557 166.049 290.351 166.532C292.098 167.002 294.552 165.815 296.366 161.465C296.857 160.286 297.816 158.932 299.075 157.476C300.341 156.013 301.935 154.418 303.727 152.756C307.31 149.433 311.711 145.816 315.91 142.422C316.741 141.751 317.564 141.088 318.371 140.439C321.649 137.798 324.667 135.367 326.915 133.4C328.318 132.172 329.398 131.144 330.051 130.37C330.382 129.978 330.574 129.685 330.654 129.488C330.668 129.453 330.677 129.426 330.683 129.406C330.239 129.067 329.611 128.961 328.826 129.06C328.008 129.163 327.1 129.48 326.235 129.873C325.374 130.264 324.583 130.719 324.004 131.077C323.716 131.256 323.482 131.41 323.32 131.518C323.24 131.573 323.178 131.616 323.136 131.645L323.089 131.678L323.078 131.686L323.075 131.687L323.075 131.688L323.075 131.688L323.075 131.688C323.075 131.688 323.075 131.688 323.074 131.687L322.404 130.957C322.403 130.956 322.403 130.956 322.403 130.956L322.403 130.956L322.403 130.956L322.404 130.955L322.41 130.948L322.434 130.92C322.456 130.894 322.487 130.855 322.527 130.805C322.607 130.704 322.718 130.56 322.841 130.386C323.091 130.033 323.378 129.578 323.565 129.132C323.762 128.66 323.795 128.321 323.717 128.126C323.666 128 323.496 127.769 322.755 127.727L300.054 132.062ZM300.054 132.062C300.918 131.47 301.592 131.063 302.109 130.799C302.638 130.53 302.963 130.432 303.143 130.415C303.145 130.415 303.147 130.415 303.149 130.414C303.146 130.464 303.135 130.54 303.107 130.648C302.988 131.104 302.665 131.73 302.343 132.275C302.187 132.541 302.039 132.774 301.929 132.941C301.875 133.025 301.83 133.092 301.8 133.137L301.765 133.189L301.756 133.201L301.754 133.204L301.753 133.205M300.054 132.062L301.753 133.205M301.753 133.205L301.753 133.205L301.754 133.206M301.753 133.205L301.754 133.206M301.754 133.206L302.512 133.849L302.513 133.849L302.513 133.849L302.513 133.849L302.513 133.848L302.517 133.845L302.53 133.832L302.585 133.78C302.633 133.734 302.704 133.666 302.797 133.579C302.983 133.406 303.252 133.158 303.586 132.86C304.256 132.265 305.183 131.474 306.217 130.69C307.252 129.905 308.384 129.136 309.462 128.576C310.556 128.008 311.527 127.692 312.263 127.731C313.053 127.773 313.244 128.017 313.302 128.159C313.386 128.368 313.35 128.728 313.141 129.224C312.943 129.692 312.639 130.17 312.374 130.54C312.244 130.722 312.127 130.874 312.042 130.979C312 131.032 311.966 131.073 311.944 131.1L311.918 131.131L311.912 131.138L311.911 131.139L311.911 131.139L311.911 131.139C311.911 131.139 311.911 131.139 311.912 131.14L312.552 131.892L312.552 131.892L312.552 131.892L312.553 131.891L312.556 131.889L312.571 131.88L312.63 131.844C312.682 131.812 312.76 131.766 312.86 131.706C313.06 131.587 313.351 131.416 313.71 131.212C314.429 130.804 315.42 130.261 316.513 129.726C317.608 129.189 318.795 128.663 319.907 128.284C321.031 127.901 322.026 127.686 322.755 127.727L301.754 133.206ZM330.691 129.357C330.692 129.357 330.692 129.361 330.691 129.37C330.69 129.362 330.691 129.358 330.691 129.357Z" fill="white" stroke="#DE713D"/>
<path d="M314.017 161.883L314.378 165.108L312.216 162.66L315.055 159.36L318.626 161.646L314.552 161.329L313.949 161.282L314.017 161.883Z" fill="#407BFF" stroke="#DE713D"/>
<path opacity="0.3" d="M314.017 161.883L314.378 165.108L312.216 162.66L315.055 159.36L318.626 161.646L314.552 161.329L313.949 161.282L314.017 161.883Z" fill="white" stroke="#DE713D"/>
<path d="M278.118 156.384L278.118 156.384C280.226 157.564 283.767 158.068 287.681 157.986C291.619 157.904 296.028 157.226 299.928 155.963C304.494 154.484 307.831 153.768 310.21 153.824C311.393 153.851 312.308 154.069 313.013 154.455C313.71 154.836 314.231 155.396 314.603 156.166C315.316 157.637 315.268 159.188 314.269 160.575C313.251 161.99 311.196 163.299 307.758 164.114C305.897 164.554 304.169 165.683 302.454 167.071C301.593 167.767 300.723 168.538 299.835 169.334C299.722 169.436 299.608 169.538 299.494 169.64C298.712 170.342 297.913 171.059 297.08 171.767C293.265 175.011 288.821 178.001 282.646 178.091C276.484 178.18 271.794 175.144 269.018 170.719C266.235 166.282 265.379 160.446 266.935 154.98L266.986 154.802L266.908 154.633L266.454 154.843C266.908 154.633 266.908 154.633 266.908 154.633L266.907 154.632L266.907 154.63L266.904 154.625L266.894 154.604C266.886 154.587 266.874 154.561 266.857 154.528C266.825 154.462 266.777 154.367 266.713 154.244C266.585 153.998 266.394 153.644 266.134 153.203C265.616 152.323 264.827 151.096 263.742 149.704C261.687 147.068 258.563 143.83 254.19 141.22C254.288 141.168 254.397 141.112 254.515 141.053C255.203 140.712 256.218 140.281 257.517 139.934C260.057 139.254 263.682 138.892 268.058 140.146C268.076 140.219 268.097 140.304 268.122 140.402C268.21 140.748 268.343 141.245 268.526 141.854C268.892 143.071 269.456 144.736 270.249 146.532C271.826 150.1 274.353 154.277 278.118 156.384Z" fill="#DE713D" stroke="#DE713D"/>
<path opacity="0.5" d="M278.118 156.384L278.118 156.384C280.226 157.564 283.767 158.068 287.681 157.986C291.619 157.904 296.028 157.226 299.928 155.963C304.494 154.484 307.831 153.768 310.21 153.824C311.393 153.851 312.308 154.069 313.013 154.455C313.71 154.836 314.231 155.396 314.603 156.166C315.316 157.637 315.268 159.188 314.269 160.575C313.251 161.99 311.196 163.299 307.758 164.114C305.897 164.554 304.169 165.683 302.454 167.071C301.593 167.767 300.723 168.538 299.835 169.334C299.722 169.436 299.608 169.538 299.494 169.64C298.712 170.342 297.913 171.059 297.08 171.767C293.265 175.011 288.821 178.001 282.646 178.091C276.484 178.18 271.794 175.144 269.018 170.719C266.235 166.282 265.379 160.446 266.935 154.98L266.986 154.802L266.908 154.633L266.454 154.843C266.908 154.633 266.908 154.633 266.908 154.633L266.907 154.632L266.907 154.63L266.904 154.625L266.894 154.604C266.886 154.587 266.874 154.561 266.857 154.528C266.825 154.462 266.777 154.367 266.713 154.244C266.585 153.998 266.394 153.644 266.134 153.203C265.616 152.323 264.827 151.096 263.742 149.704C261.687 147.068 258.563 143.83 254.19 141.22C254.288 141.168 254.397 141.112 254.515 141.053C255.203 140.712 256.218 140.281 257.517 139.934C260.057 139.254 263.682 138.892 268.058 140.146C268.076 140.219 268.097 140.304 268.122 140.402C268.21 140.748 268.343 141.245 268.526 141.854C268.892 143.071 269.456 144.736 270.249 146.532C271.826 150.1 274.353 154.277 278.118 156.384Z" fill="white" stroke="#DE713D"/>
<path d="M311.055 158.25C311.055 158.317 311.001 158.371 310.934 158.371C310.866 158.371 310.812 158.317 310.812 158.25C310.812 158.182 310.866 158.128 310.934 158.128C311.001 158.128 311.055 158.182 311.055 158.25Z" fill="#263238" stroke="#DE713D"/>
<path d="M249.701 162.338L249.701 162.338L249.701 162.338L250.079 161.418L250.079 161.418L250.079 161.418L250.079 161.417L250.078 161.417L250.074 161.415L250.057 161.406L249.991 161.37C249.932 161.339 249.845 161.292 249.734 161.23C249.512 161.107 249.193 160.928 248.807 160.701C248.034 160.248 246.996 159.61 245.931 158.869C244.865 158.126 243.783 157.288 242.918 156.435C242.04 155.57 241.44 154.744 241.25 154.032C241.046 153.267 241.219 153.011 241.336 152.912C241.509 152.767 241.863 152.691 242.399 152.737C242.906 152.78 243.454 152.922 243.887 153.059C244.101 153.127 244.282 153.192 244.408 153.239C244.471 153.263 244.52 153.283 244.553 153.296L244.59 153.311L244.599 153.314L244.6 153.315L244.601 153.315L244.601 153.315C244.601 153.315 244.601 153.315 244.601 153.314L245.118 152.473L245.118 152.473L245.118 152.473L245.118 152.472L245.114 152.47L245.101 152.459L245.049 152.413C245.003 152.374 244.934 152.314 244.847 152.237C244.671 152.084 244.42 151.86 244.115 151.581C243.504 151.024 242.682 150.248 241.835 149.374C240.987 148.498 240.12 147.532 239.417 146.592C238.705 145.641 238.193 144.761 238.008 144.055C237.819 143.337 237.985 143.104 238.09 143.017C238.251 142.883 238.584 142.809 239.094 142.852C239.576 142.891 240.097 143.024 240.51 143.153C240.713 143.216 240.885 143.277 241.005 143.322C241.065 143.344 241.112 143.363 241.143 143.375L241.178 143.389L241.186 143.392L241.188 143.393L241.188 143.393L241.188 143.393C241.188 143.393 241.188 143.393 241.188 143.392L241.676 142.529C241.676 142.529 241.676 142.529 241.676 142.529L241.676 142.529L241.676 142.528L241.676 142.528L241.673 142.526L241.662 142.518L241.616 142.484C241.576 142.453 241.516 142.407 241.439 142.347C241.286 142.227 241.067 142.052 240.808 141.833C240.289 141.393 239.612 140.781 238.975 140.083C238.334 139.381 237.752 138.615 237.401 137.869C237.064 137.153 236.971 136.523 237.156 135.996C237.177 135.995 237.205 135.996 237.243 135.999C237.455 136.014 237.793 136.105 238.268 136.299C239.206 136.682 240.517 137.392 242.118 138.348C244.682 139.878 247.924 141.998 251.447 144.3C252.315 144.868 253.2 145.446 254.096 146.03C258.621 148.977 263.419 152.047 267.687 154.429C269.821 155.62 271.83 156.645 273.612 157.396C275.385 158.145 276.97 158.639 278.243 158.742C282.941 159.125 284.829 161.092 284.921 162.899C285.015 164.754 283.274 166.983 279.574 167.992C275.901 168.993 269.925 169.347 264.019 168.8C258.097 168.25 252.376 166.806 249.139 164.309C248.309 163.669 247.714 163.154 247.303 162.743C246.884 162.324 246.69 162.044 246.619 161.878C246.618 161.876 246.617 161.875 246.616 161.873C246.664 161.86 246.74 161.847 246.852 161.84C247.321 161.813 248.017 161.927 248.635 162.064C248.935 162.131 249.203 162.2 249.396 162.252C249.492 162.278 249.569 162.3 249.622 162.315L249.682 162.333L249.697 162.337L249.7 162.338L249.701 162.338ZM237.107 136.003C237.107 136.003 237.11 136.001 237.119 135.999C237.112 136.003 237.108 136.003 237.107 136.003Z" fill="#DE713D" stroke="#DE713D"/>
<path opacity="0.4" d="M249.701 162.338L249.701 162.338L249.701 162.338L250.079 161.418L250.079 161.418L250.079 161.418L250.079 161.417L250.078 161.417L250.074 161.415L250.057 161.406L249.991 161.37C249.932 161.339 249.845 161.292 249.734 161.23C249.512 161.107 249.193 160.928 248.807 160.701C248.034 160.248 246.996 159.61 245.931 158.869C244.865 158.126 243.783 157.288 242.918 156.435C242.04 155.57 241.44 154.744 241.25 154.032C241.046 153.267 241.219 153.011 241.336 152.912C241.509 152.767 241.863 152.691 242.399 152.737C242.906 152.78 243.454 152.922 243.887 153.059C244.101 153.127 244.282 153.192 244.408 153.239C244.471 153.263 244.52 153.283 244.553 153.296L244.59 153.311L244.599 153.314L244.6 153.315L244.601 153.315L244.601 153.315C244.601 153.315 244.601 153.315 244.601 153.314L245.118 152.473L245.118 152.473L245.118 152.473L245.118 152.472L245.114 152.47L245.101 152.459L245.049 152.413C245.003 152.374 244.934 152.314 244.847 152.237C244.671 152.084 244.42 151.86 244.115 151.581C243.504 151.024 242.682 150.248 241.835 149.374C240.987 148.498 240.12 147.532 239.417 146.592C238.705 145.641 238.193 144.761 238.008 144.055C237.819 143.337 237.985 143.104 238.09 143.017C238.251 142.883 238.584 142.809 239.094 142.852C239.576 142.891 240.097 143.024 240.51 143.153C240.713 143.216 240.885 143.277 241.005 143.322C241.065 143.344 241.112 143.363 241.143 143.375L241.178 143.389L241.186 143.392L241.188 143.393L241.188 143.393L241.188 143.393C241.188 143.393 241.188 143.393 241.188 143.392L241.676 142.529C241.676 142.529 241.676 142.529 241.676 142.529L241.676 142.529L241.676 142.528L241.676 142.528L241.673 142.526L241.662 142.518L241.616 142.484C241.576 142.453 241.516 142.407 241.439 142.347C241.286 142.227 241.067 142.052 240.808 141.833C240.289 141.393 239.612 140.781 238.975 140.083C238.334 139.381 237.752 138.615 237.401 137.869C237.064 137.153 236.971 136.523 237.156 135.996C237.177 135.995 237.205 135.996 237.243 135.999C237.455 136.014 237.793 136.105 238.268 136.299C239.206 136.682 240.517 137.392 242.118 138.348C244.682 139.878 247.924 141.998 251.447 144.3C252.315 144.868 253.2 145.446 254.096 146.03C258.621 148.977 263.419 152.047 267.687 154.429C269.821 155.62 271.83 156.645 273.612 157.396C275.385 158.145 276.97 158.639 278.243 158.742C282.941 159.125 284.829 161.092 284.921 162.899C285.015 164.754 283.274 166.983 279.574 167.992C275.901 168.993 269.925 169.347 264.019 168.8C258.097 168.25 252.376 166.806 249.139 164.309C248.309 163.669 247.714 163.154 247.303 162.743C246.884 162.324 246.69 162.044 246.619 161.878C246.618 161.876 246.617 161.875 246.616 161.873C246.664 161.86 246.74 161.847 246.852 161.84C247.321 161.813 248.017 161.927 248.635 162.064C248.935 162.131 249.203 162.2 249.396 162.252C249.492 162.278 249.569 162.3 249.622 162.315L249.682 162.333L249.697 162.337L249.7 162.338L249.701 162.338ZM237.107 136.003C237.107 136.003 237.11 136.001 237.119 135.999C237.112 136.003 237.108 136.003 237.107 136.003Z" fill="#DE713D" stroke="#DE713D"/>
<path d="M230.568 133.993C229.256 133.525 227.929 133.09 226.59 132.683" stroke="#DE713D" stroke-width="0.75" stroke-linecap="round" stroke-linejoin="round"/>
<path d="M218.429 130.602C213.536 129.577 208.562 128.913 203.621 128.569C190.048 127.624 168.77 126.28 160.456 139.806C152.88 152.131 165.914 173.16 170.54 184.603C176.207 198.618 182.944 215.948 176.249 230.784C162.49 261.272 103.592 245.441 83.7246 217.362" stroke="#DE713D" stroke-width="0.75" stroke-linecap="round" stroke-linejoin="round" stroke-dasharray="6.03 6.03"/>
<path d="M81.4658 213.816C80.7664 212.585 80.1438 211.334 79.6035 210.066" stroke="#DE713D" stroke-width="0.75" stroke-linecap="round" stroke-linejoin="round"/>
<path d="M251.011 324.663H198.021V335.53H251.011V324.663Z" fill="white"/>
<path opacity="0.1" d="M251.011 324.663H198.021V335.53H251.011V324.663Z" fill="black"/>
<path opacity="0.1" d="M220.339 324.663H198.021V335.53H220.339V324.663Z" fill="black"/>
<path opacity="0.1" d="M198.021 326.227H245.191L198.021 327.562V326.227Z" fill="black"/>
<path opacity="0.1" d="M251.01 328.115L210.121 329.127H251.01V328.115Z" fill="black"/>
<path opacity="0.1" d="M200.182 331.153L220.34 330.323L249.977 331.153L220.34 331.612L200.182 331.153Z" fill="black"/>
<path opacity="0.1" d="M198.021 333.453H232.949L198.021 334.281V333.453Z" fill="black"/>
<path opacity="0.1" d="M250.935 334.281L227.609 334.714H251.011L250.935 334.281Z" fill="black"/>
<path d="M243.636 313.795H190.646V324.663H243.636V313.795Z" fill="white"/>
<path opacity="0.1" d="M243.636 313.795H190.646V324.663H243.636V313.795Z" fill="black"/>
<path opacity="0.1" d="M212.964 313.795H190.646V324.663H212.964V313.795Z" fill="black"/>
<path opacity="0.1" d="M190.646 315.36H237.816L190.646 316.694V315.36Z" fill="black"/>
<path opacity="0.1" d="M243.636 317.247L202.746 318.259H243.636V317.247Z" fill="black"/>
<path opacity="0.1" d="M192.807 320.285L212.963 319.456L242.602 320.285L212.963 320.744L192.807 320.285Z" fill="black"/>
<path opacity="0.1" d="M190.646 322.585H225.574L190.646 323.413V322.585Z" fill="black"/>
<path opacity="0.1" d="M243.561 323.413L220.236 323.846H243.637L243.561 323.413Z" fill="black"/>
<path d="M249.687 302.927H196.697V313.795H249.687V302.927Z" fill="white"/>
<path opacity="0.1" d="M249.687 302.927H196.697V313.795H249.687V302.927Z" fill="black"/>
<path opacity="0.1" d="M219.015 302.927H196.697V313.795H219.015V302.927Z" fill="black"/>
<path opacity="0.1" d="M196.697 304.492H243.867L196.697 305.826V304.492Z" fill="black"/>
<path opacity="0.1" d="M249.687 306.379L208.797 307.391H249.687V306.379Z" fill="black"/>
<path opacity="0.1" d="M198.857 309.415L219.014 308.588L248.653 309.415L219.014 309.876L198.857 309.415Z" fill="black"/>
<path opacity="0.1" d="M196.697 311.717H231.625L196.697 312.545V311.717Z" fill="black"/>
<path opacity="0.1" d="M249.611 312.545L226.287 312.978H249.688L249.611 312.545Z" fill="black"/>
<path d="M284.988 335.303L286.366 330.096H342.977L369.046 332.699L370.037 335.303H284.988Z" fill="#263238"/>
<path opacity="0.4" d="M342.977 330.096V335.303H284.988L286.366 330.096H342.977Z" fill="black"/>
<path d="M331.602 305.17C331.853 307.92 329.843 310.154 327.107 310.154H240.387C237.637 310.154 235.208 307.92 234.957 305.17L229.806 249.651C229.75 249.079 229.792 248.535 229.917 248.032C230.406 246.078 232.123 244.668 234.301 244.668H321.02C323.77 244.668 326.199 246.901 326.451 249.651L331.602 305.17Z" fill="#263238"/>
<path opacity="0.4" d="M326.802 310.154H240.389C237.639 310.154 235.21 307.92 234.959 305.17L229.807 249.651C229.752 249.079 229.794 248.535 229.919 248.032H316.332C319.068 248.032 321.497 250.266 321.762 253.016L326.913 308.535C326.969 309.107 326.926 309.651 326.802 310.154Z" fill="black"/>
<path d="M267.222 276.103H285.162L280.379 327.466L308.749 331.725V335.303H249V331.725L261.24 327.466L267.222 276.103Z" fill="#263238"/>
<path opacity="0.1" d="M285.162 276.103L271.871 334.486L261.24 334.171L267.222 276.103H285.162Z" fill="white"/>
<path d="M285.08 559.232H276.528L261.162 345.3H272.509L285.08 559.232Z" fill="#263238"/>
<path opacity="0.4" d="M285.086 559.232H276.528L261.912 355.926L261.158 345.644H272.508L273.122 355.926L285.086 559.232Z" fill="white"/>
<path opacity="0.2" d="M273.122 355.416H261.912L261.158 345.644H272.508L273.122 355.416Z" fill="black"/>
<path d="M347.844 559.232H339.292L337.896 345.3H349.242L347.844 559.232Z" fill="#263238"/>
<path opacity="0.5" d="M349.248 345.644L349.025 380.161L347.852 559.232H339.294L338.122 380.161L337.898 345.644H349.248Z" fill="white"/>
<path opacity="0.2" d="M349.248 345.644L349.025 380.544H338.122L337.898 345.644H349.248Z" fill="black"/>
<path d="M438.64 559.232H430.088L414.723 345.3H426.069L438.64 559.232Z" fill="#263238"/>
<path opacity="0.5" d="M438.646 559.232H430.089L415.473 355.926L414.719 345.644H426.068L426.682 355.926L438.646 559.232Z" fill="white"/>
<path opacity="0.2" d="M426.682 355.416H415.473L414.719 345.644H426.068L426.682 355.416Z" fill="black"/>
<path d="M187.249 559.232H178.695L191.268 345.3H202.613L187.249 559.232Z" fill="#263238"/>
<path opacity="0.5" d="M202.611 345.644L201.857 355.926L187.241 559.232H178.697L190.647 355.926L191.261 345.644H202.611Z" fill="white"/>
<path opacity="0.2" d="M191.263 345.644H202.612L201.858 355.416H190.648L191.263 345.644Z" fill="black"/>
<path d="M432.044 350.658H185.292C183.625 350.658 182.273 349.306 182.273 347.639V339.942H435.063V347.638C435.063 349.306 433.711 350.658 432.044 350.658Z" fill="#407BFF"/>
<path opacity="0.6" d="M432.044 350.658H185.292C183.625 350.658 182.273 349.306 182.273 347.639V339.942H435.063V347.638C435.063 349.306 433.711 350.658 432.044 350.658Z" fill="white"/>
<path opacity="0.2" d="M435.063 339.942H182.273V345.3H435.063V339.942Z" fill="black"/>
<path d="M440.364 341.339H176.973C175.306 341.339 173.955 339.988 173.955 338.321C173.955 336.654 175.306 335.303 176.973 335.303H440.365C442.032 335.303 443.383 336.654 443.383 338.321C443.382 339.988 442.03 341.339 440.364 341.339Z" fill="#407BFF"/>
<path opacity="0.6" d="M440.364 341.339H176.973C175.306 341.339 173.955 339.988 173.955 338.321C173.955 336.654 175.306 335.303 176.973 335.303H440.365C442.032 335.303 443.383 336.654 443.383 338.321C443.382 339.988 442.03 341.339 440.364 341.339Z" fill="white"/>
<path d="M378.045 326.004L381.289 321.147C381.936 320.179 383.023 319.598 384.189 319.598H388.297C388.639 319.598 388.981 319.648 389.308 319.747L403.949 324.185C404.781 324.438 405.49 324.992 405.934 325.739L408.035 329.271L378.045 326.004Z" fill="#DE713D"/>
<path opacity="0.2" d="M408.035 329.272L386.718 326.955L378.049 326.006L381.288 321.147C381.93 320.184 383.019 319.598 384.191 319.598H388.295C388.644 319.598 388.98 319.654 389.315 319.751L389.636 319.849L403.945 324.191C404.782 324.442 405.494 324.986 405.941 325.74L408.035 329.272Z" fill="black"/>
<path opacity="0.2" d="M408.036 329.272L386.719 326.955L389.636 319.849L403.945 324.191C404.783 324.442 405.495 324.986 405.942 325.74L408.036 329.272Z" fill="black"/>
<path d="M418.168 334.841V335.301H399.588H372.91L374.585 328.754C375.241 326.297 377.475 324.58 380.016 324.58H400.09C400.76 324.58 401.416 324.692 402.045 324.929L404.557 325.865L414.525 329.578C416.718 330.403 418.168 332.497 418.168 334.841Z" fill="#DE713D"/>
<path opacity="0.2" d="M418.169 334.841V335.301H399.588L400.579 328.224C400.844 326.353 402.785 325.208 404.558 325.865L414.525 329.578C416.718 330.403 418.169 332.497 418.169 334.841Z" fill="black"/>
<path d="M402.482 330.491L408.393 312.751C408.649 311.984 409.527 311.628 410.244 311.998C410.791 312.28 411.069 312.905 410.913 313.5L405.935 332.44C405.935 332.44 402.621 333.78 402.482 330.491Z" fill="#263238"/>
<path opacity="0.2" d="M378.045 333.829H375.422L375.927 331.252H378.55L378.045 333.829Z" fill="black"/>
<path opacity="0.2" d="M381.957 333.728H379.334L379.839 331.151H382.464L381.957 333.728Z" fill="black"/>
</svg>
